<svg version="1.1" id="Capa_1" xmlns="http://www.w3.org/2000/svg" xmlns:xlink="http://www.w3.org/1999/xlink" x="0px" y="0px"
	 viewBox="0 0 218.285 218.285" style="enable-background:new 0 0 218.285 218.285;" xml:space="preserve">
<path d="M89.859,210.795c-0.477,0-0.961-0.086-1.432-0.267c-2.063-0.791-3.093-3.105-2.301-5.168l13.982-36.432
	c0.311-0.81,0.876-1.496,1.612-1.957l23.461-14.687l15.689-24.477c0.292-0.457,0.675-0.849,1.124-1.153l22.597-15.312l16.708-24.007
	c0.361-0.519,0.839-0.943,1.396-1.241l24.309-13.009c1.749-0.937,2.918-2.598,3.209-4.56s-0.347-3.892-1.75-5.295
	c-2.417-2.416-6.352-2.416-8.771,0.001L56.848,206.078c-1.563,1.563-4.095,1.563-5.657,0c-1.562-1.562-1.562-4.095,0-5.656
	L194.036,57.577c5.538-5.537,14.547-5.537,20.084,0c3.212,3.212,4.672,7.631,4.007,12.123s-3.344,8.298-7.348,10.44l-23.462,12.556
	l-16.584,23.828c-0.281,0.403-0.633,0.751-1.04,1.026l-22.531,15.268l-15.73,24.54c-0.319,0.498-0.744,0.919-1.245,1.232
	l-23.089,14.454l-13.503,35.184C92.984,209.819,91.468,210.795,89.859,210.795z M35.186,184.416l135.879-135.88
	c4.543-4.542,7.045-10.582,7.045-17.007c0-6.424-2.502-12.464-7.045-17.007c-9.377-9.377-24.636-9.377-34.014,0L1.172,150.402
	c-1.562,1.562-1.562,4.095,0,5.656c1.563,1.563,4.095,1.563,5.657,0l135.879-135.88c6.259-6.257,16.442-6.258,22.701,0
	c3.032,3.032,4.702,7.063,4.702,11.351c0,4.288-1.67,8.318-4.702,11.351l-135.88,135.88c-1.562,1.562-1.562,4.095,0,5.656
	c0.781,0.781,1.805,1.172,2.829,1.172C33.381,185.587,34.405,185.197,35.186,184.416z"/>
</svg>
