<svg version="1.1" xmlns="http://www.w3.org/2000/svg" xmlns:xlink="http://www.w3.org/1999/xlink" x="0px" y="0px" viewBox="0 0 1000 1000" enable-background="new 0 0 1000 1000" xml:space="preserve">
<metadata> Svg Vector Icons : http://www.onlinewebfonts.com/icon </metadata>
<g><g transform="translate(0.000000,511.000000) scale(0.100000,-0.100000)"><path d="M7907.3,4988c-78.1-42.8-113.4-98.2-113.4-181.4c0-65.5,57.9-133.5,382.9-461l385.5-385.4l-574.4-571.9l-571.9-574.4l-428.3,428.3l-428.3,428.3L4130.9,1239.2c-2348-2350.5-2431.1-2436.2-2519.3-2620.1c-224.2-461-209.1-964.9,40.3-1370.5l75.6-123.4l-813.7-813.7C155.4-4446.8,100-4509.8,100-4590.4c0-148.6,146.1-251.9,269.6-188.9c30.2,15.1,413.2,385.5,851.5,821.3l793.6,791.1l126-75.6c403.1-246.9,909.5-259.5,1370.5-37.8c183.9,88.2,269.6,171.3,2620.1,2519.3l2431.1,2428.6l-428.3,428.3l-428.3,428.3l574.4,571.9l571.9,574.4l385.4-385.4c390.5-390.5,430.8-415.7,559.3-367.8c57.9,22.7,115.9,151.2,100.8,219.2c-22.7,85.7-1826.5,1881.9-1889.5,1881.9C7980.4,5018.2,7935,5003.1,7907.3,4988z M7282.5,2393.1c377.9-377.9,687.8-697.8,687.8-713c0-12.6-58-83.1-131-156.2l-131-133.5l-244.3,239.3c-204.1,201.5-254.5,239.3-322.5,239.3c-108.3,0-204.1-95.7-204.1-204.1c0-68,37.8-118.4,239.3-322.5l239.3-244.4l-138.6-136l-138.6-136l-231.8,229.3c-128.5,126-259.5,234.3-287.2,244.4c-128.5,40.3-282.2-100.8-251.9-229.3c10-40.3,118.4-171.3,249.4-304.8l231.8-231.8l-143.6-143.6L6562,246.6L6312.6,491c-269.5,264.5-322.5,287.2-443.4,191.5c-50.4-37.8-65.5-73.1-65.5-143.6c0-85.7,22.7-118.4,239.3-332.6L6282.4-33l-143.6-143.6l-146.1-146.1L5753.3-83.4c-216.7,214.1-249.4,239.3-332.6,239.3c-110.8,0-196.5-90.7-196.5-209.1c0-63,40.3-115.9,241.8-314.9l244.4-236.8L5566.9-746l-141.1-143.6L5194-657.8c-133.5,131-264.5,239.3-304.8,249.4c-128.5,30.2-269.6-123.4-229.3-251.9C4670-688,4778.3-819,4904.3-947.5l229.3-231.8l-136-138.6l-136-138.6l-244.4,239.3c-196.5,194-257,239.3-317.4,239.3c-115.9,0-209.1-85.7-209.1-194c0-80.6,27.7-118.4,239.3-332.6l239.3-244.4l-561.8-556.8c-604.6-602.1-685.3-660.1-985-715.5c-390.5-73.1-811.2,115.9-1015.3,458.5c-173.8,292.2-199,634.9-65.5,942.2c60.5,138.6,246.9,330,2335.4,2426.1C5524,2055.5,6557,3078.3,6569.6,3078.3C6582.2,3078.3,6904.6,2768.5,7282.5,2393.1z"/></g></g>
</svg>