<svg version="1.1" xmlns="http://www.w3.org/2000/svg" xmlns:xlink="http://www.w3.org/1999/xlink" x="0px" y="0px" viewBox="0 0 1000 1000" enable-background="new 0 0 1000 1000" xml:space="preserve">
<g><g transform="matrix(1 0 0 -1 0 1952)"><path d="M327.9,1318.6c7.4,83.8,85.9,139.4,85.9,226.9c0,87.5-87.2,75.3-118.9,62.2c-31.7-13-135.9-80.6-158.3-114.1s-48.4-55.8-48.4-122.9s44.7-78.2,63.3-150.8c16.8-68.9-1.9-258,145.2-258c0,0,132.8,12.8,132.8,126.4C429.6,1202,320.4,1234.9,327.9,1318.6L327.9,1318.6z M394.8,1736.1c-19.7,0-34.2-20.4-34.2-49.6c0-29.2,14.5-52.8,34.2-52.8c19.7,0,35.6,23.6,35.6,52.8C430.4,1715.7,414.5,1736.1,394.8,1736.1L394.8,1736.1z M293,1635.3c18.4,0,33.3,15.1,33.3,33.8c0,18.7-14.9,33.8-33.3,33.8c-18.4,0-33.3-15.1-33.3-33.8C259.8,1650.4,274.7,1635.3,293,1635.3z M191.2,1598.8c17.8,0,32.2,17,32.2,35.4c0,18.4-14.4,33.3-32.2,33.3c-17.8,0-32.2-14.9-32.2-33.3C159,1615.9,173.4,1598.8,191.2,1598.8z M121.5,1530.2c19.5,0,35.4,15.8,35.4,35.4c0,19.5-15.8,35.4-35.4,35.4c-19.5,0-35.4-15.8-35.4-35.4C86.1,1546,101.9,1530.2,121.5,1530.2z M70,1493.7c-10.1,0-18.2-8.2-18.2-18.2s8.2-18.2,18.2-18.2c10.1,0,18.2,8.2,18.2,18.2C88.2,1485.6,80,1493.7,70,1493.7z M705.1,1811.5c-31.7,13-120,24.2-120-63.3c0-87.5,79.5-144.2,86.9-227.9c7.4-83.8-101.7-116.7-101.7-230.3c0-113.6,132.8-119.9,132.8-119.9c147.1,0,128.5,182.6,145.2,251.5c18.6,72.6,63.3,83.8,63.3,150.8c0,67-26.1,89.4-48.4,122.9C841.1,1728.8,736.8,1798.5,705.1,1811.5L705.1,1811.5z M605.2,1839.6c19.7,0,34.2,23.6,34.2,52.8c0,29.2-14.5,49.6-34.2,49.6c-19.7,0-35.6-20.4-35.6-49.6C569.6,1863.3,585.5,1839.6,605.2,1839.6z M707,1841.2c18.4,0,33.3,15.1,33.3,33.8c0,18.7-14.9,33.8-33.3,33.8c-18.4,0-33.3-15.1-33.3-33.8C673.7,1856.3,688.6,1841.2,707,1841.2z M808.9,1806.9c17.8,0,32.2,14.9,32.2,33.3s-14.4,33.3-32.2,33.3c-17.8,0-32.2-14.9-32.2-33.3C776.7,1821.8,791.1,1806.9,808.9,1806.9z M878.5,1736.1c19.5,0,35.4,15.8,35.4,35.4s-15.9,35.4-35.4,35.4c-19.5,0-35.4-15.8-35.4-35.4C843.2,1751.9,859,1736.1,878.5,1736.1z M930,1703.9c-10.1,0-18.2-8.2-18.2-18.2c0-10.1,8.2-18.2,18.2-18.2c10.1,0,18.2,8.2,18.2,18.2C948.3,1695.8,940.1,1703.9,930,1703.9z"/></g></g>
</svg>