<svg id="svg" version="1.1" width="400" height="405.7142857142857" viewBox="0 0 400 405.7142857142857" xmlns="http://www.w3.org/2000/svg" xmlns:xlink="http://www.w3.org/1999/xlink" ><g id="svgg"><path id="path0" d="M119.780 9.381 C 120.781 10.911,121.600 12.396,121.600 12.681 C 121.600 12.967,121.780 13.200,122.000 13.200 C 122.886 13.200,121.201 9.927,119.324 8.000 C 118.042 6.684,118.069 6.767,119.780 9.381 M44.991 10.987 C 44.116 11.723,43.491 12.418,43.601 12.531 C 43.712 12.644,44.491 12.105,45.333 11.333 C 47.319 9.513,47.057 9.248,44.991 10.987 M42.079 14.300 C 41.165 15.598,39.597 18.632,39.607 19.084 C 39.611 19.258,40.114 18.500,40.725 17.400 C 41.335 16.300,42.163 14.905,42.563 14.300 C 42.964 13.695,43.194 13.200,43.073 13.200 C 42.953 13.200,42.506 13.695,42.079 14.300 M122.978 17.235 C 122.831 17.474,122.910 17.870,123.155 18.115 C 123.482 18.442,123.600 18.326,123.600 17.680 C 123.600 16.714,123.392 16.565,122.978 17.235 M38.400 21.800 C 38.400 22.130,38.580 22.400,38.800 22.400 C 39.020 22.400,39.200 22.130,39.200 21.800 C 39.200 21.470,39.020 21.200,38.800 21.200 C 38.580 21.200,38.400 21.470,38.400 21.800 M38.000 24.424 C 38.000 24.877,38.180 25.136,38.400 25.000 C 38.620 24.864,38.800 24.493,38.800 24.176 C 38.800 23.859,38.620 23.600,38.400 23.600 C 38.180 23.600,38.000 23.971,38.000 24.424 M38.000 28.576 C 38.000 29.139,38.180 29.600,38.400 29.600 C 38.620 29.600,38.800 29.251,38.800 28.824 C 38.800 28.397,38.620 27.936,38.400 27.800 C 38.173 27.660,38.000 27.996,38.000 28.576 M38.400 31.800 C 38.400 32.130,38.580 32.400,38.800 32.400 C 39.020 32.400,39.200 32.130,39.200 31.800 C 39.200 31.470,39.020 31.200,38.800 31.200 C 38.580 31.200,38.400 31.470,38.400 31.800 M123.821 32.224 C 123.223 33.137,123.202 33.438,123.662 34.537 C 123.952 35.232,124.147 35.935,124.095 36.100 C 124.043 36.265,124.180 36.400,124.400 36.400 C 124.937 36.400,124.907 36.167,124.190 34.781 C 123.638 33.713,123.643 33.506,124.244 32.588 C 124.610 32.031,124.818 31.485,124.708 31.375 C 124.598 31.265,124.199 31.647,123.821 32.224 M38.571 37.371 C 38.148 37.681,37.940 38.074,38.110 38.243 C 38.280 38.413,38.719 38.252,39.086 37.886 C 39.950 37.021,39.570 36.641,38.571 37.371 M35.653 40.089 C 33.806 42.030,33.795 42.726,35.639 40.971 C 36.814 39.852,37.834 38.400,37.444 38.400 C 37.343 38.400,36.537 39.160,35.653 40.089 M42.800 56.643 C 41.854 57.222,42.174 57.209,43.668 56.608 C 44.125 56.424,44.390 56.570,44.507 57.069 C 44.660 57.722,44.674 57.718,44.639 57.031 C 44.587 56.015,44.020 55.895,42.800 56.643 M29.600 56.680 C 29.600 57.109,31.537 59.029,31.706 58.768 C 31.767 58.676,31.317 58.082,30.708 57.450 C 30.099 56.817,29.600 56.471,29.600 56.680 M124.406 67.300 C 124.411 68.028,124.486 68.085,124.800 67.600 C 125.301 66.824,125.301 66.400,124.800 66.400 C 124.580 66.400,124.403 66.805,124.406 67.300 M122.863 70.432 C 121.635 73.109,122.054 73.456,123.373 70.853 C 124.482 68.666,124.560 68.400,124.098 68.400 C 123.931 68.400,123.376 69.314,122.863 70.432 M47.600 68.949 C 47.600 69.381,49.189 72.400,49.416 72.400 C 49.526 72.400,49.230 71.635,48.759 70.700 C 47.832 68.861,47.600 68.511,47.600 68.949 M288.100 69.098 C 290.245 69.170,293.755 69.170,295.900 69.098 C 298.045 69.026,296.290 68.967,292.000 68.967 C 287.710 68.967,285.955 69.026,288.100 69.098 M275.905 69.483 C 276.402 69.579,277.122 69.575,277.505 69.475 C 277.887 69.375,277.480 69.296,276.600 69.301 C 275.720 69.305,275.407 69.387,275.905 69.483 M306.100 69.476 C 306.485 69.576,307.115 69.576,307.500 69.476 C 307.885 69.375,307.570 69.293,306.800 69.293 C 306.030 69.293,305.715 69.375,306.100 69.476 M53.000 78.000 C 53.398 78.440,53.792 78.800,53.876 78.800 C 53.960 78.800,53.835 78.440,53.600 78.000 C 53.365 77.560,52.970 77.200,52.724 77.200 C 52.478 77.200,52.602 77.560,53.000 78.000 M348.000 77.553 C 348.000 77.748,348.360 78.001,348.800 78.116 C 349.745 78.363,349.886 77.795,348.967 77.443 C 348.128 77.121,348.000 77.135,348.000 77.553 M214.400 78.000 C 214.400 78.220,214.670 78.400,215.000 78.400 C 215.330 78.400,215.600 78.220,215.600 78.000 C 215.600 77.780,215.330 77.600,215.000 77.600 C 214.670 77.600,214.400 77.780,214.400 78.000 M116.975 79.300 L 115.800 80.600 117.100 79.425 C 118.312 78.330,118.584 78.000,118.275 78.000 C 118.206 78.000,117.621 78.585,116.975 79.300 M350.000 78.353 C 350.000 78.548,350.360 78.801,350.800 78.916 C 351.745 79.163,351.886 78.595,350.967 78.243 C 350.128 77.921,350.000 77.935,350.000 78.353 M352.000 79.153 C 352.000 79.348,352.360 79.601,352.800 79.716 C 353.745 79.963,353.886 79.395,352.967 79.043 C 352.128 78.721,352.000 78.735,352.000 79.153 M55.551 81.138 C 57.069 83.055,57.941 83.792,58.285 83.449 C 58.576 83.157,55.247 79.600,54.683 79.600 C 54.490 79.600,54.881 80.292,55.551 81.138 M205.200 80.000 C 205.200 80.220,205.470 80.400,205.800 80.400 C 206.130 80.400,206.400 80.220,206.400 80.000 C 206.400 79.780,206.130 79.600,205.800 79.600 C 205.470 79.600,205.200 79.780,205.200 80.000 M112.338 83.844 C 110.136 85.674,109.734 86.595,111.878 84.897 C 113.503 83.610,114.670 82.400,114.287 82.400 C 114.171 82.400,113.294 83.050,112.338 83.844 M363.221 85.031 C 365.299 86.257,367.900 87.934,369.000 88.756 C 371.349 90.512,372.000 90.921,372.000 90.644 C 372.000 90.050,360.775 82.800,359.857 82.800 C 359.628 82.800,361.142 83.804,363.221 85.031 M107.758 87.202 C 107.537 87.423,106.196 88.228,104.778 88.993 C 101.650 90.678,101.911 90.865,105.111 89.232 C 107.637 87.944,109.230 86.832,108.580 86.813 C 108.349 86.806,107.979 86.981,107.758 87.202 M372.813 91.500 C 372.819 91.665,373.314 92.146,373.913 92.568 L 375.000 93.336 374.030 92.268 C 373.011 91.146,372.792 91.007,372.813 91.500 M156.500 92.665 C 155.518 93.061,156.029 93.855,157.829 94.729 C 158.835 95.218,159.559 95.457,159.438 95.261 C 159.316 95.065,158.673 94.679,158.009 94.404 C 156.674 93.851,156.412 92.960,157.500 92.676 C 157.971 92.553,158.003 92.488,157.600 92.478 C 157.270 92.470,156.775 92.554,156.500 92.665 M376.000 94.282 C 376.000 94.682,380.160 98.800,380.564 98.800 C 381.074 98.800,380.141 97.655,378.150 95.840 C 376.967 94.762,376.000 94.060,376.000 94.282 M112.400 95.200 C 111.915 95.514,111.972 95.589,112.700 95.594 C 113.195 95.597,113.600 95.420,113.600 95.200 C 113.600 94.699,113.176 94.699,112.400 95.200 M140.000 95.173 C 140.000 95.408,140.135 95.579,140.300 95.553 C 140.465 95.527,140.690 95.540,140.800 95.583 C 140.910 95.626,141.270 95.720,141.600 95.792 C 141.930 95.864,142.560 96.042,143.000 96.187 C 143.511 96.356,143.439 96.243,142.800 95.875 C 141.289 95.006,140.000 94.682,140.000 95.173 M109.100 96.626 C 108.055 97.170,107.200 97.776,107.200 97.972 C 107.200 98.399,111.582 96.332,111.592 95.900 C 111.604 95.429,111.140 95.565,109.100 96.626 M144.000 96.739 C 144.000 97.183,147.137 98.596,147.443 98.290 C 147.572 98.161,146.947 97.683,146.055 97.228 C 144.249 96.307,144.000 96.248,144.000 96.739 M105.555 98.717 C 104.999 99.093,104.016 99.922,103.372 100.561 C 102.350 101.573,104.085 100.533,106.767 98.525 C 107.461 98.005,106.349 98.182,105.555 98.717 M148.000 98.798 C 148.000 99.283,149.122 99.812,149.452 99.482 C 149.571 99.362,149.293 99.064,148.834 98.818 C 148.256 98.509,148.000 98.503,148.000 98.798 M166.791 99.881 C 167.337 100.277,168.057 100.870,168.391 101.200 C 169.243 102.039,176.734 107.200,177.100 107.200 C 177.265 107.199,176.860 106.753,176.200 106.207 C 175.540 105.662,174.783 105.032,174.517 104.808 C 174.251 104.584,173.861 104.400,173.650 104.400 C 173.439 104.400,173.207 104.251,173.133 104.070 C 173.060 103.888,171.650 102.840,170.000 101.740 C 166.960 99.715,164.975 98.565,166.791 99.881 M381.037 99.700 C 381.548 100.599,382.517 101.600,382.874 101.600 C 383.066 101.600,382.825 101.060,382.337 100.400 C 381.477 99.237,380.463 98.691,381.037 99.700 M150.062 99.986 C 150.145 100.236,150.841 100.809,151.607 101.259 C 152.373 101.709,152.640 101.786,152.200 101.431 C 151.760 101.075,151.065 100.503,150.655 100.158 C 150.246 99.813,149.979 99.736,150.062 99.986 M160.600 107.388 C 161.260 107.929,161.980 108.377,162.200 108.384 C 162.420 108.390,162.060 107.953,161.400 107.412 C 160.740 106.871,160.020 106.423,159.800 106.416 C 159.580 106.410,159.940 106.847,160.600 107.388 M95.170 107.855 C 94.636 108.435,94.455 108.830,94.766 108.733 C 95.293 108.568,96.713 106.800,96.319 106.800 C 96.220 106.800,95.703 107.275,95.170 107.855 M388.009 109.100 C 388.014 109.265,388.385 109.850,388.833 110.400 L 389.648 111.400 389.014 110.100 C 388.411 108.865,387.989 108.445,388.009 109.100 M92.745 110.889 C 91.114 113.101,89.742 115.342,88.443 117.916 C 86.547 121.671,86.976 121.443,89.037 117.600 C 90.039 115.730,91.583 113.241,92.466 112.069 C 93.349 110.898,93.991 109.858,93.892 109.759 C 93.793 109.659,93.277 110.168,92.745 110.889 M165.615 111.184 C 166.377 111.835,167.180 112.370,167.400 112.373 C 167.620 112.376,167.170 111.848,166.400 111.200 C 165.630 110.552,164.827 110.017,164.615 110.011 C 164.403 110.005,164.853 110.533,165.615 111.184 M390.883 114.187 C 391.585 115.610,392.225 116.708,392.306 116.628 C 392.485 116.449,390.066 111.600,389.798 111.600 C 389.693 111.600,390.182 112.764,390.883 114.187 M170.600 115.200 C 170.998 115.640,171.504 116.000,171.724 116.000 C 171.944 116.000,171.798 115.640,171.400 115.200 C 171.002 114.760,170.496 114.400,170.276 114.400 C 170.056 114.400,170.202 114.760,170.600 115.200 M172.800 116.668 C 172.800 117.179,174.335 118.598,174.601 118.332 C 174.709 118.225,174.348 117.714,173.798 117.199 C 173.249 116.683,172.800 116.444,172.800 116.668 M191.288 118.219 C 191.886 118.845,192.482 119.252,192.611 119.122 C 192.740 118.993,192.251 118.481,191.523 117.984 L 190.200 117.080 191.288 118.219 M392.428 117.400 C 392.428 117.620,392.686 118.250,393.000 118.800 C 393.314 119.350,393.572 119.620,393.572 119.400 C 393.572 119.180,393.314 118.550,393.000 118.000 C 392.686 117.450,392.428 117.180,392.428 117.400 M175.600 119.119 C 175.600 119.294,176.351 120.149,177.269 121.019 L 178.937 122.600 177.420 120.700 C 175.894 118.788,175.600 118.533,175.600 119.119 M194.000 120.693 C 194.991 121.945,195.600 122.313,195.600 121.662 C 195.600 121.301,194.585 120.344,193.600 119.776 C 193.270 119.586,193.450 119.998,194.000 120.693 M196.751 123.109 C 197.244 124.029,199.675 126.059,199.952 125.781 C 200.194 125.539,198.842 124.086,197.454 123.097 L 196.307 122.280 196.751 123.109 M184.187 127.587 C 186.592 129.999,188.650 131.884,188.760 131.774 C 189.021 131.512,180.736 123.200,180.214 123.200 C 179.994 123.200,181.782 125.174,184.187 127.587 M81.550 126.799 C 82.732 127.451,83.947 128.190,84.250 128.441 C 84.567 128.705,84.800 128.732,84.800 128.505 C 84.800 128.114,80.402 125.593,79.744 125.607 C 79.555 125.611,80.367 126.148,81.550 126.799 M56.472 127.843 C 55.522 128.412,54.826 128.960,54.926 129.060 C 55.026 129.159,55.974 128.692,57.032 128.020 C 59.368 126.539,58.897 126.390,56.472 127.843 M205.200 131.000 C 207.060 132.870,208.672 134.400,208.782 134.400 C 208.892 134.400,207.460 132.870,205.600 131.000 C 203.740 129.130,202.128 127.600,202.018 127.600 C 201.908 127.600,203.340 129.130,205.200 131.000 M311.920 134.191 C 311.854 137.606,311.935 140.401,312.100 140.401 C 312.265 140.400,312.400 137.700,312.400 134.400 L 312.400 128.400 318.600 128.400 L 324.800 128.400 324.800 134.000 C 324.800 137.080,324.935 139.600,325.100 139.601 C 325.265 139.601,325.310 137.036,325.200 133.901 L 325.000 128.200 318.520 128.090 L 312.039 127.980 311.920 134.191 M52.962 130.462 L 52.200 131.324 53.300 130.616 C 54.434 129.886,54.649 129.600,54.062 129.600 C 53.876 129.600,53.381 129.988,52.962 130.462 M190.758 134.294 C 192.127 136.078,192.800 136.675,192.800 136.105 C 192.800 135.916,192.048 135.051,191.129 134.181 L 189.457 132.600 190.758 134.294 M49.505 133.900 C 48.629 134.891,46.400 138.487,46.400 138.910 C 46.400 139.181,48.818 135.791,50.259 133.500 C 50.611 132.940,50.127 133.197,49.505 133.900 M211.200 137.400 C 212.172 138.390,213.031 139.200,213.110 139.200 C 213.189 139.200,212.590 138.390,211.779 137.400 C 210.967 136.410,210.108 135.600,209.869 135.600 C 209.629 135.600,210.228 136.410,211.200 137.400 M193.524 137.433 C 194.040 138.428,195.200 139.456,195.200 138.919 C 195.200 138.710,194.726 138.103,194.146 137.570 C 193.205 136.704,193.138 136.690,193.524 137.433 M195.600 139.902 C 195.600 140.122,195.870 140.526,196.200 140.800 C 196.535 141.078,196.800 141.121,196.800 140.898 C 196.800 140.678,196.530 140.274,196.200 140.000 C 195.865 139.722,195.600 139.679,195.600 139.902 M214.470 141.139 C 214.981 141.765,215.463 142.114,215.541 141.915 C 215.708 141.488,214.439 140.000,213.908 140.000 C 213.705 140.000,213.958 140.512,214.470 141.139 M306.600 142.072 C 305.720 142.532,304.940 143.064,304.867 143.254 C 304.793 143.444,304.478 143.600,304.167 143.600 C 303.855 143.600,303.600 143.780,303.600 144.000 C 303.600 144.220,303.341 144.400,303.024 144.400 C 302.395 144.400,301.791 145.124,302.134 145.467 C 302.251 145.585,302.944 145.234,303.674 144.688 C 304.403 144.141,305.621 143.380,306.380 142.995 C 307.796 142.279,309.116 141.186,308.529 141.218 C 308.348 141.227,307.480 141.612,306.600 142.072 M334.400 141.914 C 334.400 142.087,335.587 142.814,337.038 143.529 C 338.513 144.256,339.594 144.603,339.488 144.315 C 339.385 144.032,339.098 143.845,338.850 143.900 C 338.603 143.955,338.400 143.809,338.400 143.576 C 338.400 143.343,338.220 143.264,338.000 143.400 C 337.780 143.536,337.600 143.490,337.600 143.298 C 337.600 143.105,336.964 142.645,336.186 142.274 C 334.586 141.511,334.400 141.473,334.400 141.914 M216.000 143.074 C 216.000 143.261,217.099 144.581,218.443 146.007 C 219.786 147.433,220.695 148.224,220.463 147.764 C 220.230 147.304,219.536 146.377,218.920 145.705 C 218.304 145.033,217.607 144.160,217.371 143.765 C 216.904 142.983,216.000 142.527,216.000 143.074 M200.400 146.200 C 200.674 146.530,201.078 146.800,201.298 146.800 C 201.521 146.800,201.478 146.535,201.200 146.200 C 200.926 145.870,200.522 145.600,200.302 145.600 C 200.079 145.600,200.122 145.865,200.400 146.200 M44.514 148.200 C 44.517 149.300,44.595 149.703,44.687 149.095 C 44.779 148.486,44.777 147.586,44.682 147.095 C 44.587 146.603,44.511 147.100,44.514 148.200 M201.628 147.400 C 201.626 147.908,203.162 149.771,203.392 149.541 C 203.487 149.446,203.129 148.836,202.597 148.184 C 202.064 147.533,201.628 147.180,201.628 147.400 M399.693 148.400 C 399.693 149.170,399.775 149.485,399.876 149.100 C 399.976 148.715,399.976 148.085,399.876 147.700 C 399.775 147.315,399.693 147.630,399.693 148.400 M221.200 148.957 C 221.200 149.298,223.644 152.800,223.882 152.800 C 224.111 152.800,223.356 151.531,222.229 150.022 C 221.663 149.265,221.200 148.785,221.200 148.957 M297.000 151.200 C 296.659 151.860,296.469 152.400,296.579 152.400 C 296.689 152.400,297.059 151.860,297.400 151.200 C 297.741 150.540,297.931 150.000,297.821 150.000 C 297.711 150.000,297.341 150.540,297.000 151.200 M206.958 155.347 C 211.386 162.104,211.293 161.973,210.554 160.400 C 209.633 158.438,204.377 150.400,204.014 150.400 C 203.850 150.400,205.175 152.626,206.958 155.347 M337.843 151.033 C 337.521 151.872,337.535 152.000,337.953 152.000 C 338.148 152.000,338.401 151.640,338.516 151.200 C 338.763 150.255,338.195 150.114,337.843 151.033 M318.707 152.690 C 319.426 152.779,320.506 152.777,321.107 152.686 C 321.708 152.595,321.120 152.522,319.800 152.524 C 318.480 152.526,317.988 152.601,318.707 152.690 M314.039 153.422 C 313.291 153.747,312.769 154.103,312.880 154.213 C 312.990 154.324,313.873 154.055,314.840 153.616 C 315.808 153.177,316.330 152.821,316.000 152.824 C 315.670 152.828,314.788 153.097,314.039 153.422 M310.832 156.339 C 310.179 157.560,310.314 157.900,311.041 156.863 C 311.393 156.360,311.588 155.854,311.473 155.740 C 311.359 155.625,311.070 155.895,310.832 156.339 M332.400 155.943 C 332.400 156.354,333.612 156.922,333.892 156.642 C 333.989 156.544,333.693 156.264,333.234 156.018 C 332.775 155.773,332.400 155.739,332.400 155.943 M335.664 156.619 C 335.409 157.179,335.206 157.764,335.213 157.919 C 335.232 158.322,336.800 156.383,336.800 155.956 C 336.800 155.231,336.114 155.632,335.664 156.619 M310.101 159.800 C 310.105 160.680,310.187 160.993,310.283 160.495 C 310.379 159.998,310.375 159.278,310.275 158.895 C 310.175 158.513,310.096 158.920,310.101 159.800 M48.800 162.376 C 48.800 162.670,41.307 162.800,24.400 162.800 C 10.959 162.800,-0.000 162.955,-0.000 163.146 C -0.000 163.656,3.768 164.097,3.931 163.606 C 4.021 163.338,11.795 163.200,26.833 163.200 C 47.964 163.200,50.626 163.081,49.200 162.200 C 48.980 162.064,48.800 162.143,48.800 162.376 M310.412 162.120 C 310.352 163.696,312.724 165.971,316.287 167.755 C 318.922 169.075,319.600 169.091,317.200 167.777 C 313.987 166.019,311.712 164.160,310.861 162.600 C 310.621 162.160,310.419 161.944,310.412 162.120 M230.007 162.469 C 229.990 163.133,233.368 168.896,233.515 168.454 C 233.606 168.182,233.239 167.293,232.700 166.479 C 232.161 165.666,231.336 164.370,230.867 163.600 C 230.397 162.830,230.010 162.321,230.007 162.469 M7.200 164.752 C 7.200 164.923,8.140 165.499,9.289 166.032 C 10.438 166.564,12.708 167.865,14.334 168.921 C 15.960 169.978,17.368 170.766,17.462 170.671 C 17.697 170.436,10.368 165.765,8.615 165.032 C 7.837 164.707,7.200 164.581,7.200 164.752 M399.693 166.400 C 399.693 167.170,399.775 167.485,399.876 167.100 C 399.976 166.715,399.976 166.085,399.876 165.700 C 399.775 165.315,399.693 165.630,399.693 166.400 M215.685 170.585 C 216.608 172.447,217.428 173.905,217.507 173.826 C 217.685 173.649,214.465 167.200,214.198 167.200 C 214.093 167.200,214.761 168.723,215.685 170.585 M297.473 171.507 C 298.307 173.047,300.922 175.883,302.544 177.007 C 303.174 177.443,303.926 178.025,304.216 178.300 C 304.506 178.575,304.877 178.800,305.040 178.800 C 305.203 178.800,305.667 179.099,306.071 179.464 C 306.475 179.830,306.939 179.985,307.102 179.809 C 307.266 179.634,307.174 179.410,306.898 179.311 C 305.284 178.735,298.909 173.251,297.468 171.200 C 296.809 170.263,296.810 170.282,297.473 171.507 M54.400 170.942 C 54.400 171.473,57.663 176.070,57.884 175.850 C 58.000 175.733,57.413 174.684,56.578 173.519 C 54.742 170.954,54.400 170.550,54.400 170.942 M234.800 171.781 C 234.800 171.881,235.009 172.421,235.264 172.981 C 235.915 174.409,236.428 174.258,235.878 172.800 C 235.500 171.800,234.800 171.138,234.800 171.781 M328.800 173.352 C 328.800 173.446,329.617 174.003,330.616 174.588 C 331.615 175.173,333.061 176.205,333.829 176.879 C 334.598 177.554,335.325 178.009,335.444 177.889 C 335.706 177.627,331.920 174.756,330.100 173.836 C 329.385 173.475,328.800 173.257,328.800 173.352 M236.557 175.833 C 236.691 176.181,236.800 176.541,236.800 176.633 C 236.800 176.725,236.963 176.800,237.163 176.800 C 237.362 176.800,237.431 176.440,237.316 176.000 C 237.201 175.560,236.928 175.200,236.711 175.200 C 236.493 175.200,236.424 175.485,236.557 175.833 M218.428 176.200 C 218.428 176.420,218.686 177.050,219.000 177.600 C 219.314 178.150,219.572 178.420,219.572 178.200 C 219.572 177.980,219.314 177.350,219.000 176.800 C 218.686 176.250,218.428 175.980,218.428 176.200 M59.065 177.600 C 59.688 178.260,60.255 178.800,60.326 178.800 C 60.397 178.800,60.070 178.260,59.600 177.600 C 59.130 176.940,58.563 176.400,58.339 176.400 C 58.115 176.400,58.442 176.940,59.065 177.600 M26.687 178.023 C 27.395 178.758,28.062 179.272,28.169 179.165 C 28.275 179.058,27.696 178.457,26.881 177.829 L 25.400 176.687 26.687 178.023 M219.803 179.500 C 219.961 179.885,220.181 180.515,220.292 180.900 C 220.458 181.478,221.200 181.935,221.200 181.460 C 221.200 180.800,220.236 178.800,219.918 178.800 C 219.691 178.800,219.640 179.105,219.803 179.500 M30.000 181.084 C 31.371 182.698,32.000 183.133,32.000 182.467 C 32.000 182.284,31.235 181.527,30.300 180.785 L 28.600 179.435 30.000 181.084 M337.400 180.400 C 337.798 180.840,338.304 181.200,338.524 181.200 C 338.744 181.200,338.598 180.840,338.200 180.400 C 337.802 179.960,337.296 179.600,337.076 179.600 C 336.856 179.600,337.002 179.960,337.400 180.400 M63.107 182.800 C 63.767 183.790,64.714 184.960,65.212 185.400 L 66.116 186.200 65.661 185.400 C 65.411 184.960,64.464 183.790,63.556 182.800 L 61.907 181.000 63.107 182.800 M338.647 181.906 C 338.892 182.068,339.559 183.100,340.128 184.200 C 340.697 185.300,341.171 186.059,341.181 185.887 C 341.224 185.172,339.148 181.600,338.693 181.606 C 338.344 181.610,338.331 181.698,338.647 181.906 M239.656 182.800 C 239.656 183.130,239.811 183.760,240.000 184.200 C 240.217 184.704,240.344 184.778,240.344 184.400 C 240.344 184.070,240.189 183.440,240.000 183.000 C 239.783 182.496,239.656 182.422,239.656 182.800 M33.200 183.893 C 33.200 184.461,39.190 190.144,39.481 189.852 C 39.622 189.712,39.301 189.129,38.768 188.558 C 37.107 186.776,33.200 183.502,33.200 183.893 M321.007 186.654 C 321.883 187.233,323.387 188.448,324.348 189.354 C 325.309 190.259,325.911 190.640,325.685 190.200 C 324.996 188.860,320.836 185.600,319.814 185.600 C 319.594 185.600,320.131 186.074,321.007 186.654 M66.800 187.024 C 66.800 187.545,71.517 192.217,71.779 191.955 C 71.888 191.845,70.813 190.600,69.389 189.189 C 67.965 187.778,66.800 186.804,66.800 187.024 M342.520 194.000 C 342.520 195.210,342.595 195.705,342.687 195.100 C 342.778 194.495,342.778 193.505,342.687 192.900 C 342.595 192.295,342.520 192.790,342.520 194.000 M72.724 192.889 C 73.487 193.837,77.589 196.944,77.799 196.734 C 77.953 196.580,75.805 194.824,73.010 192.819 C 72.275 192.292,72.249 192.299,72.724 192.889 M44.000 194.220 C 44.000 194.439,45.569 196.144,47.487 198.009 L 50.974 201.400 48.213 198.400 C 46.695 196.750,45.126 195.045,44.726 194.611 C 44.327 194.177,44.000 194.001,44.000 194.220 M297.437 197.448 C 297.092 198.346,297.158 198.686,297.555 198.059 C 297.823 197.636,298.085 197.618,298.749 197.973 C 299.904 198.591,299.828 198.241,298.637 197.461 C 297.772 196.894,297.650 196.893,297.437 197.448 M123.035 200.609 C 121.514 201.594,120.119 202.400,119.935 202.400 C 119.751 202.400,119.600 202.575,119.600 202.790 C 119.600 203.163,122.661 201.516,124.834 199.973 C 125.809 199.282,125.911 199.279,126.621 199.920 C 127.357 200.585,127.357 200.581,126.625 199.700 C 126.213 199.205,125.859 198.804,125.838 198.809 C 125.817 198.813,124.556 199.623,123.035 200.609 M82.000 199.379 C 82.000 199.489,82.540 199.859,83.200 200.200 C 83.860 200.541,84.400 200.731,84.400 200.621 C 84.400 200.511,83.860 200.141,83.200 199.800 C 82.540 199.459,82.000 199.269,82.000 199.379 M324.200 200.400 C 323.802 200.840,323.656 201.200,323.876 201.200 C 324.096 201.200,324.602 200.840,325.000 200.400 C 325.398 199.960,325.544 199.600,325.324 199.600 C 325.104 199.600,324.598 199.960,324.200 200.400 M321.500 202.120 C 320.312 202.589,320.029 203.200,321.000 203.200 C 321.330 203.200,321.600 203.048,321.600 202.861 C 321.600 202.675,322.005 202.327,322.500 202.088 C 323.658 201.530,322.936 201.552,321.500 202.120 M295.280 203.480 C 295.030 204.294,294.892 205.026,294.973 205.106 C 295.054 205.187,295.336 204.599,295.600 203.800 C 295.864 203.001,296.002 202.269,295.907 202.174 C 295.812 202.078,295.530 202.666,295.280 203.480 M88.400 202.795 C 88.400 203.071,89.341 203.600,89.833 203.600 C 90.379 203.600,89.866 202.858,89.200 202.684 C 88.760 202.569,88.400 202.619,88.400 202.795 M128.400 202.558 C 128.400 202.733,128.774 203.402,129.231 204.043 C 129.688 204.685,130.944 206.873,132.023 208.905 C 133.102 210.937,133.988 212.327,133.992 211.994 C 133.997 211.660,132.910 209.500,131.578 207.194 C 129.215 203.101,128.400 201.912,128.400 202.558 M52.000 203.130 C 52.000 203.672,53.974 205.359,54.267 205.067 C 54.415 204.918,54.114 204.348,53.599 203.798 C 52.654 202.793,52.000 202.520,52.000 203.130 M314.800 203.600 C 314.800 203.820,315.250 204.000,315.800 204.000 C 316.350 204.000,316.800 203.820,316.800 203.600 C 316.800 203.380,316.350 203.200,315.800 203.200 C 315.250 203.200,314.800 203.380,314.800 203.600 M101.200 206.000 C 101.200 206.220,101.605 206.397,102.100 206.394 C 102.828 206.389,102.885 206.314,102.400 206.000 C 101.624 205.499,101.200 205.499,101.200 206.000 M338.053 206.700 C 337.323 208.063,333.575 211.420,331.132 212.900 C 328.238 214.653,328.461 214.931,331.406 213.242 C 334.643 211.385,340.172 206.000,338.841 206.000 C 338.614 206.000,338.259 206.315,338.053 206.700 M244.520 208.800 C 244.520 210.010,244.595 210.505,244.687 209.900 C 244.778 209.295,244.778 208.305,244.687 207.700 C 244.595 207.095,244.520 207.590,244.520 208.800 M244.528 214.800 C 244.528 216.230,244.601 216.815,244.689 216.100 C 244.778 215.385,244.778 214.215,244.689 213.500 C 244.601 212.785,244.528 213.370,244.528 214.800 M301.400 214.614 C 302.060 214.917,302.870 215.158,303.200 215.152 C 303.530 215.145,303.170 214.897,302.400 214.600 C 300.574 213.897,299.855 213.907,301.400 214.614 M324.267 215.867 C 324.120 216.013,324.040 219.028,324.089 222.567 L 324.178 229.000 324.300 222.828 C 324.373 219.125,324.597 216.445,324.860 216.128 C 325.301 215.597,324.770 215.363,324.267 215.867 M384.200 223.600 C 384.336 223.820,384.246 224.000,384.000 224.000 C 383.754 224.000,383.664 224.180,383.800 224.400 C 383.936 224.620,383.857 224.800,383.624 224.800 C 383.391 224.800,383.221 224.935,383.247 225.100 C 383.358 225.804,383.164 226.378,382.638 226.905 C 382.329 227.214,381.320 228.982,380.396 230.834 C 379.309 233.012,379.004 233.898,379.533 233.344 C 381.063 231.740,385.141 223.200,384.376 223.200 C 384.143 223.200,384.064 223.380,384.200 223.600 M137.600 225.176 C 137.600 225.629,137.780 226.000,138.000 226.000 C 138.220 226.000,138.400 225.741,138.400 225.424 C 138.400 225.107,138.220 224.736,138.000 224.600 C 137.780 224.464,137.600 224.723,137.600 225.176 M138.000 227.576 C 138.000 228.029,138.180 228.400,138.400 228.400 C 138.620 228.400,138.800 228.141,138.800 227.824 C 138.800 227.507,138.620 227.136,138.400 227.000 C 138.180 226.864,138.000 227.123,138.000 227.576 M138.400 230.576 C 138.400 231.139,138.580 231.600,138.800 231.600 C 139.020 231.600,139.200 231.251,139.200 230.824 C 139.200 230.397,139.020 229.936,138.800 229.800 C 138.573 229.660,138.400 229.996,138.400 230.576 M129.500 233.889 C 130.215 233.978,131.385 233.978,132.100 233.889 C 132.815 233.801,132.230 233.728,130.800 233.728 C 129.370 233.728,128.785 233.801,129.500 233.889 M122.500 234.276 C 122.885 234.376,123.515 234.376,123.900 234.276 C 124.285 234.175,123.970 234.093,123.200 234.093 C 122.430 234.093,122.115 234.175,122.500 234.276 M231.728 237.600 C 231.728 239.030,231.801 239.615,231.889 238.900 C 231.978 238.185,231.978 237.015,231.889 236.300 C 231.801 235.585,231.728 236.170,231.728 237.600 M377.400 236.400 C 377.059 237.060,376.869 237.600,376.979 237.600 C 377.089 237.600,377.459 237.060,377.800 236.400 C 378.141 235.740,378.331 235.200,378.221 235.200 C 378.111 235.200,377.741 235.740,377.400 236.400 M240.101 240.600 C 240.105 241.480,240.187 241.793,240.283 241.295 C 240.379 240.798,240.375 240.078,240.275 239.695 C 240.175 239.313,240.096 239.720,240.101 240.600 M92.500 239.865 C 91.681 240.195,91.933 240.743,92.800 240.516 C 93.240 240.401,93.600 240.148,93.600 239.953 C 93.600 239.572,93.288 239.547,92.500 239.865 M89.323 241.278 C 88.841 241.511,88.354 241.942,88.242 242.235 C 88.086 242.640,88.372 242.610,89.418 242.111 C 90.178 241.748,90.800 241.305,90.800 241.126 C 90.800 240.709,90.419 240.749,89.323 241.278 M86.100 243.646 C 84.737 244.519,84.295 245.106,85.500 244.443 C 86.418 243.939,87.856 242.827,87.600 242.819 C 87.490 242.816,86.815 243.188,86.100 243.646 M371.225 246.885 C 369.816 249.102,367.601 252.348,366.304 254.097 C 365.007 255.847,364.030 257.364,364.134 257.468 C 364.352 257.686,368.879 251.351,371.984 246.483 C 373.147 244.658,374.029 243.096,373.943 243.010 C 373.858 242.924,372.634 244.668,371.225 246.885 M240.093 248.000 C 240.093 248.770,240.175 249.085,240.276 248.700 C 240.376 248.315,240.376 247.685,240.276 247.300 C 240.175 246.915,240.093 247.230,240.093 248.000 M78.983 249.909 C 77.813 250.898,77.034 252.000,77.504 252.000 C 77.724 252.000,78.386 251.370,78.973 250.600 C 80.169 249.032,80.170 248.905,78.983 249.909 M74.714 256.200 C 73.939 257.740,73.175 259.450,73.015 260.000 L 72.726 261.000 73.386 260.099 C 73.749 259.604,74.113 258.851,74.195 258.425 C 74.383 257.450,75.128 256.001,75.892 255.123 C 76.217 254.751,76.401 254.211,76.302 253.923 C 76.204 253.635,75.489 254.660,74.714 256.200 M361.200 260.600 C 360.922 260.935,360.879 261.200,361.102 261.200 C 361.322 261.200,361.726 260.930,362.000 260.600 C 362.278 260.265,362.321 260.000,362.098 260.000 C 361.878 260.000,361.474 260.270,361.200 260.600 M359.762 262.458 C 359.005 263.310,359.006 263.313,359.878 262.856 C 360.850 262.346,361.449 261.600,360.886 261.600 C 360.687 261.600,360.181 261.986,359.762 262.458 M357.525 265.098 C 356.368 266.445,356.300 266.992,357.425 265.912 C 358.048 265.314,358.461 264.728,358.343 264.610 C 358.225 264.492,357.857 264.711,357.525 265.098 M244.400 265.749 C 244.400 266.181,245.989 269.200,246.216 269.200 C 246.326 269.200,246.030 268.435,245.559 267.500 C 244.632 265.661,244.400 265.311,244.400 265.749 M350.891 272.276 C 348.411 274.764,346.524 276.800,346.698 276.800 C 347.111 276.800,355.815 268.069,355.580 267.889 C 355.481 267.813,353.371 269.787,350.891 272.276 M247.413 271.500 C 248.012 272.545,248.781 273.670,249.122 274.000 C 249.566 274.430,249.537 274.269,249.019 273.435 C 248.621 272.794,247.941 271.669,247.508 270.935 C 247.075 270.201,246.632 269.600,246.522 269.600 C 246.413 269.600,246.814 270.455,247.413 271.500 M250.391 275.988 C 251.389 277.389,252.310 278.093,251.647 276.948 C 250.973 275.784,250.140 274.800,249.829 274.800 C 249.673 274.800,249.926 275.335,250.391 275.988 M236.030 276.618 C 236.014 276.848,236.526 278.558,237.170 280.418 C 237.813 282.278,238.353 283.612,238.370 283.382 C 238.386 283.152,237.874 281.442,237.230 279.582 C 236.587 277.722,236.047 276.388,236.030 276.618 M344.522 278.187 C 343.905 278.730,343.594 279.180,343.830 279.187 C 344.067 279.194,344.683 278.750,345.200 278.200 C 346.408 276.914,345.978 276.906,344.522 278.187 M255.388 281.587 C 257.352 283.561,259.038 285.096,259.135 284.999 C 259.342 284.791,252.514 278.000,252.099 278.000 C 251.944 278.000,253.424 279.614,255.388 281.587 M340.000 281.800 C 339.722 282.135,339.679 282.400,339.902 282.400 C 340.122 282.400,340.526 282.130,340.800 281.800 C 341.078 281.465,341.121 281.200,340.898 281.200 C 340.678 281.200,340.274 281.470,340.000 281.800 M132.705 283.483 C 133.202 283.579,133.922 283.575,134.305 283.475 C 134.687 283.375,134.280 283.296,133.400 283.301 C 132.520 283.305,132.207 283.387,132.705 283.483 M146.300 283.482 C 146.795 283.578,147.605 283.578,148.100 283.482 C 148.595 283.387,148.190 283.309,147.200 283.309 C 146.210 283.309,145.805 283.387,146.300 283.482 M126.000 284.000 C 126.000 284.220,126.450 284.400,127.000 284.400 C 127.550 284.400,128.000 284.220,128.000 284.000 C 128.000 283.780,127.550 283.600,127.000 283.600 C 126.450 283.600,126.000 283.780,126.000 284.000 M153.600 284.000 C 153.600 284.220,154.140 284.400,154.800 284.400 C 155.460 284.400,156.000 284.220,156.000 284.000 C 156.000 283.780,155.460 283.600,154.800 283.600 C 154.140 283.600,153.600 283.780,153.600 284.000 M122.200 284.400 C 122.060 284.627,122.396 284.800,122.976 284.800 C 123.539 284.800,124.000 284.620,124.000 284.400 C 124.000 284.180,123.651 284.000,123.224 284.000 C 122.797 284.000,122.336 284.180,122.200 284.400 M159.200 284.400 C 159.200 284.620,159.661 284.800,160.224 284.800 C 160.804 284.800,161.140 284.627,161.000 284.400 C 160.864 284.180,160.403 284.000,159.976 284.000 C 159.549 284.000,159.200 284.180,159.200 284.400 M118.965 284.948 C 118.849 285.249,118.821 286.464,118.903 287.648 L 119.052 289.800 119.126 287.500 C 119.182 285.755,119.345 285.200,119.800 285.200 C 120.130 285.200,120.400 285.020,120.400 284.800 C 120.400 284.197,119.206 284.320,118.965 284.948 M260.000 285.502 C 260.000 285.722,260.270 286.126,260.600 286.400 C 260.935 286.678,261.200 286.721,261.200 286.498 C 261.200 286.278,260.930 285.874,260.600 285.600 C 260.265 285.322,260.000 285.279,260.000 285.502 M333.029 286.629 C 332.605 286.938,332.348 287.282,332.458 287.392 C 332.568 287.502,333.005 287.338,333.429 287.029 C 333.852 286.719,334.109 286.375,333.999 286.265 C 333.889 286.155,333.452 286.319,333.029 286.629 M330.812 287.984 C 330.488 288.189,330.321 288.454,330.441 288.574 C 330.560 288.694,331.005 288.529,331.429 288.209 C 332.273 287.571,331.760 287.385,330.812 287.984 M177.777 288.438 C 177.654 288.637,178.013 288.800,178.576 288.800 C 179.802 288.800,179.901 288.572,178.800 288.284 C 178.361 288.169,177.900 288.238,177.777 288.438 M326.200 290.607 C 324.880 291.368,323.940 291.992,324.111 291.995 C 324.555 292.002,329.200 289.628,329.200 289.394 C 329.200 288.993,328.533 289.263,326.200 290.607 M322.000 292.600 C 321.450 292.914,321.180 293.172,321.400 293.172 C 321.620 293.172,322.250 292.914,322.800 292.600 C 323.350 292.286,323.620 292.028,323.400 292.028 C 323.180 292.028,322.550 292.286,322.000 292.600 M272.400 293.400 C 272.950 293.714,273.580 293.972,273.800 293.972 C 274.020 293.972,273.750 293.714,273.200 293.400 C 272.650 293.086,272.020 292.828,271.800 292.828 C 271.580 292.828,271.850 293.086,272.400 293.400 M242.006 293.500 C 242.017 294.047,242.753 294.981,242.988 294.746 C 243.303 294.431,242.801 293.200,242.357 293.200 C 242.161 293.200,242.003 293.335,242.006 293.500 M119.600 295.400 C 119.600 295.730,119.780 296.000,120.000 296.000 C 120.220 296.000,120.400 295.730,120.400 295.400 C 120.400 295.070,120.220 294.800,120.000 294.800 C 119.780 294.800,119.600 295.070,119.600 295.400 M243.222 295.800 C 243.210 296.757,243.853 297.880,244.210 297.524 C 244.349 297.385,244.186 296.760,243.847 296.135 C 243.340 295.199,243.230 295.140,243.222 295.800 M120.000 297.400 C 120.000 297.730,120.180 298.000,120.400 298.000 C 120.620 298.000,120.800 297.730,120.800 297.400 C 120.800 297.070,120.620 296.800,120.400 296.800 C 120.180 296.800,120.000 297.070,120.000 297.400 M244.419 298.120 C 244.408 298.296,244.684 298.988,245.031 299.659 C 245.377 300.330,245.733 301.252,245.821 301.710 C 246.020 302.744,246.809 303.623,246.781 302.780 C 246.761 302.151,244.450 297.593,244.419 298.120 M120.800 300.600 C 120.800 300.930,120.980 301.200,121.200 301.200 C 121.420 301.200,121.600 300.930,121.600 300.600 C 121.600 300.270,121.420 300.000,121.200 300.000 C 120.980 300.000,120.800 300.270,120.800 300.600 M194.157 308.233 C 194.291 308.581,194.400 308.951,194.400 309.056 C 194.400 309.161,194.572 309.141,194.783 309.011 C 195.247 308.724,194.874 307.600,194.314 307.600 C 194.094 307.600,194.024 307.885,194.157 308.233 M124.219 309.637 C 124.571 310.318,124.942 310.791,125.044 310.689 C 125.317 310.416,124.331 308.400,123.926 308.400 C 123.735 308.400,123.867 308.957,124.219 309.637 M250.400 310.800 C 250.849 311.680,251.306 312.400,251.416 312.400 C 251.526 312.400,251.249 311.680,250.800 310.800 C 250.351 309.920,249.894 309.200,249.784 309.200 C 249.674 309.200,249.951 309.920,250.400 310.800 M194.957 310.233 C 195.091 310.581,195.200 310.941,195.200 311.033 C 195.200 311.125,195.363 311.200,195.563 311.200 C 195.762 311.200,195.831 310.840,195.716 310.400 C 195.601 309.960,195.328 309.600,195.111 309.600 C 194.893 309.600,194.824 309.885,194.957 310.233 M196.157 313.033 C 196.291 313.381,196.400 313.741,196.400 313.833 C 196.400 313.925,196.563 314.000,196.763 314.000 C 196.962 314.000,197.031 313.640,196.916 313.200 C 196.801 312.760,196.528 312.400,196.311 312.400 C 196.093 312.400,196.024 312.685,196.157 313.033 M126.424 313.754 C 126.391 314.237,131.297 322.437,131.498 322.236 C 131.586 322.147,130.657 320.393,129.434 318.338 C 126.535 313.466,126.451 313.338,126.424 313.754 M252.800 315.200 C 253.249 316.080,253.706 316.800,253.816 316.800 C 253.926 316.800,253.649 316.080,253.200 315.200 C 252.751 314.320,252.294 313.600,252.184 313.600 C 252.074 313.600,252.351 314.320,252.800 315.200 M197.357 315.833 C 197.491 316.181,197.600 316.541,197.600 316.633 C 197.600 316.725,197.763 316.800,197.963 316.800 C 198.162 316.800,198.231 316.440,198.116 316.000 C 198.001 315.560,197.728 315.200,197.511 315.200 C 197.293 315.200,197.224 315.485,197.357 315.833 M255.216 319.500 C 256.747 322.226,257.600 323.499,257.600 323.059 C 257.600 322.639,254.366 317.200,254.116 317.200 C 254.010 317.200,254.505 318.235,255.216 319.500 M198.400 318.229 C 198.400 318.354,198.670 318.727,199.000 319.057 C 199.651 319.708,199.733 319.611,199.357 318.633 C 199.129 318.038,198.400 317.730,198.400 318.229 M76.418 324.500 C 76.428 324.775,76.870 325.810,77.400 326.800 C 78.570 328.984,78.748 327.851,77.592 325.584 C 76.765 323.963,76.386 323.613,76.418 324.500 M201.850 324.800 C 202.154 325.994,204.326 330.400,204.612 330.400 C 204.722 330.400,204.303 329.365,203.682 328.100 C 203.060 326.835,202.337 325.350,202.074 324.800 L 201.596 323.800 201.850 324.800 M260.106 327.410 C 260.598 328.169,261.145 328.792,261.323 328.795 C 261.791 328.802,260.337 326.461,259.727 326.227 C 259.442 326.118,259.611 326.645,260.106 327.410 M78.400 329.200 C 78.400 329.420,78.553 329.600,78.739 329.600 C 78.926 329.600,79.407 330.329,79.809 331.219 C 80.210 332.110,80.692 332.933,80.880 333.049 C 81.067 333.165,80.729 332.257,80.127 331.030 C 79.121 328.979,78.400 328.215,78.400 329.200 M136.800 330.400 C 137.270 331.060,137.744 331.600,137.854 331.600 C 137.964 331.600,137.670 331.060,137.200 330.400 C 136.730 329.740,136.256 329.200,136.146 329.200 C 136.036 329.200,136.330 329.740,136.800 330.400 M261.600 329.447 C 261.600 329.841,266.940 337.194,267.105 337.028 C 267.269 336.865,262.044 329.200,261.769 329.200 C 261.676 329.200,261.600 329.311,261.600 329.447 M138.728 333.004 C 139.557 334.443,140.387 335.346,140.645 335.089 C 140.784 334.950,140.306 334.244,139.583 333.521 C 138.860 332.799,138.475 332.565,138.728 333.004 M206.600 334.400 C 207.157 335.500,207.703 336.400,207.813 336.400 C 207.923 336.400,207.557 335.500,207.000 334.400 C 206.443 333.300,205.897 332.400,205.787 332.400 C 205.677 332.400,206.043 333.300,206.600 334.400 M82.600 336.400 C 82.941 337.060,83.311 337.600,83.421 337.600 C 83.531 337.600,83.341 337.060,83.000 336.400 C 82.659 335.740,82.289 335.200,82.179 335.200 C 82.069 335.200,82.259 335.740,82.600 336.400 M140.800 335.739 C 140.800 335.815,141.115 336.248,141.500 336.701 C 141.885 337.155,142.470 337.924,142.800 338.412 C 143.130 338.899,143.625 339.533,143.900 339.820 C 144.175 340.108,144.400 340.476,144.400 340.638 C 144.400 340.800,144.676 341.218,145.013 341.566 C 145.350 341.915,146.087 342.740,146.651 343.400 C 148.520 345.587,146.906 342.930,144.047 339.113 C 141.818 336.136,140.800 335.079,140.800 335.739 M267.600 337.730 C 267.600 338.177,270.532 342.002,270.726 341.808 C 270.820 341.714,270.303 340.864,269.577 339.918 C 267.826 337.638,267.600 337.388,267.600 337.730 M271.200 342.702 C 271.200 342.922,271.470 343.326,271.800 343.600 C 272.135 343.878,272.400 343.921,272.400 343.698 C 272.400 343.478,272.130 343.074,271.800 342.800 C 271.465 342.522,271.200 342.479,271.200 342.702 M212.400 344.708 C 212.400 345.261,218.115 354.148,219.159 355.217 C 220.237 356.323,219.954 355.639,218.541 353.727 C 218.023 353.026,217.600 352.261,217.600 352.027 C 217.600 351.792,217.420 351.600,217.200 351.600 C 216.980 351.600,216.800 351.330,216.800 351.000 C 216.800 350.670,216.641 350.400,216.447 350.400 C 216.252 350.400,215.974 350.085,215.829 349.700 C 215.333 348.385,214.611 347.200,214.305 347.200 C 214.137 347.200,214.000 346.930,214.000 346.600 C 214.000 346.270,213.809 346.000,213.576 346.000 C 213.343 346.000,213.235 345.865,213.334 345.700 C 213.434 345.535,213.265 345.168,212.958 344.884 C 212.651 344.601,212.400 344.521,212.400 344.708 M87.600 344.984 C 87.600 345.487,94.861 356.400,95.196 356.400 C 95.361 356.400,93.789 353.835,91.701 350.700 C 87.527 344.432,87.600 344.533,87.600 344.984 M276.834 349.847 C 277.365 350.533,277.880 351.023,277.979 350.935 C 278.077 350.847,277.643 350.286,277.013 349.688 L 275.869 348.600 276.834 349.847 M279.200 352.693 C 280.184 353.936,280.800 354.314,280.800 353.675 C 280.800 353.497,280.215 352.918,279.500 352.390 L 278.200 351.430 279.200 352.693 M281.211 354.606 C 281.227 355.199,284.032 358.101,284.315 357.818 C 284.450 357.683,283.805 356.816,282.880 355.892 C 281.956 354.968,281.205 354.389,281.211 354.606 M153.709 359.600 C 153.709 360.590,153.787 360.995,153.882 360.500 C 153.978 360.005,153.978 359.195,153.882 358.700 C 153.787 358.205,153.709 358.610,153.709 359.600 M285.672 359.468 C 286.577 360.874,290.062 364.471,290.295 364.238 C 290.413 364.121,289.295 362.804,287.811 361.312 C 286.327 359.821,285.365 358.990,285.672 359.468 M101.629 365.400 C 101.629 365.620,102.071 366.340,102.612 367.000 C 103.153 367.660,103.596 368.020,103.596 367.800 C 103.596 367.580,103.153 366.860,102.612 366.200 C 102.071 365.540,101.629 365.180,101.629 365.400 M151.082 369.122 C 150.479 370.155,149.699 371.450,149.348 372.000 L 148.710 373.000 149.588 372.015 C 150.655 370.817,152.559 367.625,152.337 367.404 C 152.249 367.316,151.684 368.089,151.082 369.122 M104.000 368.646 C 104.000 368.972,106.815 372.800,107.054 372.800 C 107.264 372.800,107.075 372.483,105.447 370.092 C 104.334 368.459,104.000 368.125,104.000 368.646 M229.200 369.337 C 229.200 369.813,232.493 374.041,232.701 373.833 C 232.805 373.729,232.203 372.779,231.365 371.722 C 229.256 369.064,229.200 369.002,229.200 369.337 M107.600 373.522 C 107.600 374.714,116.301 380.870,117.858 380.780 C 118.046 380.770,116.994 380.141,115.519 379.384 C 114.044 378.627,111.659 376.906,110.219 375.558 C 108.779 374.211,107.600 373.295,107.600 373.522 M233.200 374.702 C 233.200 374.922,233.470 375.326,233.800 375.600 C 234.135 375.878,234.400 375.921,234.400 375.698 C 234.400 375.478,234.130 375.074,233.800 374.800 C 233.465 374.522,233.200 374.479,233.200 374.702 M145.000 376.146 C 144.340 376.662,142.810 377.648,141.600 378.338 C 140.390 379.028,139.591 379.594,139.824 379.596 C 140.413 379.601,144.830 376.922,145.789 375.977 C 146.863 374.919,146.460 375.006,145.000 376.146 M235.200 377.400 C 235.474 377.730,235.878 378.000,236.098 378.000 C 236.321 378.000,236.278 377.735,236.000 377.400 C 235.726 377.070,235.322 376.800,235.102 376.800 C 234.879 376.800,234.922 377.065,235.200 377.400 M237.000 379.600 C 237.398 380.040,237.904 380.400,238.124 380.400 C 238.344 380.400,238.198 380.040,237.800 379.600 C 237.402 379.160,236.896 378.800,236.676 378.800 C 236.456 378.800,236.602 379.160,237.000 379.600 M238.433 381.300 C 238.525 381.355,239.140 381.850,239.800 382.400 L 241.000 383.400 240.030 382.300 C 239.497 381.695,238.882 381.200,238.664 381.200 C 238.445 381.200,238.342 381.245,238.433 381.300 M125.700 382.291 C 126.525 382.378,127.875 382.378,128.700 382.291 C 129.525 382.205,128.850 382.134,127.200 382.134 C 125.550 382.134,124.875 382.205,125.700 382.291 M241.619 384.695 C 242.127 385.407,242.636 385.897,242.750 385.783 C 242.864 385.669,242.449 385.086,241.826 384.488 L 240.695 383.400 241.619 384.695 M243.600 387.073 C 243.600 387.276,244.260 388.063,245.066 388.822 L 246.533 390.200 245.685 388.964 C 244.705 387.536,243.600 386.533,243.600 387.073 M293.412 390.362 C 293.269 390.814,292.169 392.583,290.968 394.292 C 289.414 396.504,289.198 396.940,290.218 395.803 C 291.805 394.036,294.203 390.069,293.879 389.746 C 293.766 389.633,293.556 389.910,293.412 390.362 M246.800 390.691 C 246.800 390.878,247.733 391.923,248.873 393.015 L 250.946 395.000 249.237 392.901 C 247.455 390.713,246.800 390.119,246.800 390.691 M252.000 396.232 C 252.000 396.752,255.520 400.213,255.782 399.951 C 255.892 399.841,255.086 398.869,253.991 397.791 C 252.896 396.712,252.000 396.011,252.000 396.232 M287.008 398.787 C 286.876 399.001,285.389 400.081,283.703 401.187 C 282.017 402.294,280.777 403.200,280.948 403.200 C 281.448 403.200,286.546 399.803,287.149 399.069 C 287.451 398.701,287.597 398.400,287.473 398.400 C 287.349 398.400,287.139 398.574,287.008 398.787 M269.100 405.489 C 269.815 405.578,270.985 405.578,271.700 405.489 C 272.415 405.401,271.830 405.328,270.400 405.328 C 268.970 405.328,268.385 405.401,269.100 405.489 " stroke="none" fill="#cfcfcf" fill-rule="evenodd"></path><path id="path1" d="M90.400 1.809 C 85.230 2.531,80.100 3.234,79.000 3.371 C 77.900 3.509,76.370 3.739,75.600 3.883 C 74.830 4.026,73.840 4.178,73.400 4.218 C 72.960 4.259,71.430 4.492,70.000 4.735 C 68.570 4.979,66.500 5.283,65.400 5.412 C 64.300 5.540,62.680 5.743,61.800 5.863 C 60.920 5.983,59.750 6.129,59.200 6.188 C 48.976 7.282,40.599 13.814,39.342 21.673 C 39.209 22.505,38.988 23.116,38.850 23.030 C 38.713 22.945,38.600 24.461,38.600 26.398 C 38.600 28.336,38.703 29.858,38.829 29.781 C 38.955 29.704,39.257 31.336,39.499 33.408 L 39.940 37.175 36.953 40.071 C 33.238 43.674,31.400 46.410,30.175 50.160 L 29.223 53.075 30.012 55.232 C 30.445 56.418,30.800 57.432,30.800 57.484 C 30.800 57.537,31.331 57.854,31.980 58.190 C 34.137 59.305,36.928 58.879,41.705 56.707 C 44.696 55.347,44.808 55.366,45.027 57.270 C 45.110 58.002,45.354 59.315,45.567 60.189 C 45.781 61.063,45.877 61.856,45.781 61.952 C 45.685 62.048,45.761 62.323,45.948 62.563 C 46.136 62.803,46.616 64.056,47.015 65.347 C 50.681 77.223,62.333 88.313,74.400 91.411 C 75.830 91.779,77.270 92.174,77.600 92.291 C 79.520 92.969,90.630 93.070,93.112 92.431 C 94.053 92.189,95.313 91.926,95.912 91.848 C 97.092 91.693,97.243 91.641,101.400 89.948 C 110.727 86.150,118.102 79.362,122.420 70.600 C 124.314 66.757,126.400 60.479,126.400 58.622 C 126.400 58.133,126.502 57.632,126.626 57.508 C 126.947 57.186,126.907 47.144,126.581 46.294 C 126.432 45.906,126.403 45.231,126.517 44.794 C 126.632 44.357,126.585 44.000,126.414 44.000 C 126.125 44.000,125.473 41.371,125.422 40.000 C 125.410 39.670,125.304 39.310,125.187 39.200 C 123.865 37.961,122.653 33.225,123.437 32.360 C 123.919 31.827,124.050 30.945,123.978 28.728 C 123.925 27.118,123.863 25.125,123.841 24.300 C 123.818 23.475,123.651 22.800,123.469 22.800 C 123.287 22.800,123.177 22.215,123.225 21.500 C 123.272 20.785,123.219 19.930,123.106 19.600 C 122.993 19.270,122.683 17.830,122.417 16.400 C 121.098 9.322,114.979 2.887,107.786 1.013 C 104.483 0.153,101.177 0.304,90.400 1.809 M280.892 69.709 C 280.291 69.879,278.540 70.015,277.000 70.011 C 275.460 70.007,272.850 70.112,271.200 70.245 C 269.550 70.378,267.300 70.535,266.200 70.594 C 265.100 70.653,263.883 70.834,263.495 70.996 C 263.107 71.157,262.210 71.204,261.501 71.100 C 260.792 70.996,259.939 71.051,259.606 71.222 C 258.783 71.644,247.668 72.889,247.216 72.610 C 247.017 72.487,246.735 72.582,246.588 72.819 C 246.441 73.057,245.844 73.214,245.260 73.169 C 244.677 73.123,243.882 73.221,243.494 73.388 C 243.106 73.554,242.431 73.597,241.994 73.483 C 241.557 73.368,241.200 73.458,241.200 73.683 C 241.200 73.908,240.666 74.012,240.010 73.916 C 239.355 73.820,238.770 73.849,238.710 73.981 C 238.551 74.329,225.625 76.462,225.214 76.209 C 225.024 76.091,224.808 76.175,224.734 76.394 C 224.660 76.614,223.656 76.840,222.503 76.897 C 221.349 76.954,220.404 77.112,220.403 77.249 C 220.398 77.640,213.213 78.856,212.718 78.550 C 212.475 78.399,212.386 78.455,212.521 78.672 C 212.814 79.146,207.773 80.154,207.121 79.751 C 206.877 79.600,206.785 79.653,206.919 79.869 C 207.058 80.093,206.040 80.484,204.535 80.783 C 201.578 81.371,190.258 84.176,184.200 85.822 C 182.000 86.419,179.927 86.937,179.593 86.973 C 179.259 87.009,178.809 87.143,178.593 87.272 C 178.222 87.493,175.869 88.119,175.000 88.227 C 174.780 88.255,174.330 88.390,174.000 88.527 C 172.359 89.210,164.659 91.160,164.352 90.970 C 164.158 90.851,164.000 90.918,164.000 91.120 C 164.000 91.321,162.470 91.897,160.600 92.400 C 156.566 93.484,156.686 93.234,159.451 94.794 C 185.461 109.473,214.444 136.321,228.615 158.864 C 233.234 166.212,239.180 178.662,238.553 179.676 C 238.396 179.931,238.456 180.013,238.693 179.866 C 238.922 179.725,239.198 179.922,239.307 180.304 C 239.415 180.687,240.167 183.160,240.977 185.800 C 244.507 197.304,245.735 208.647,244.657 219.800 C 244.487 221.560,244.348 223.312,244.348 223.693 C 244.349 224.074,243.840 225.784,243.218 227.493 C 239.746 237.035,239.530 249.329,242.660 259.295 C 243.194 260.997,243.657 262.527,243.688 262.695 C 243.836 263.491,247.821 270.824,249.377 273.166 C 255.926 283.015,265.830 290.565,277.200 294.375 C 279.290 295.076,281.270 295.751,281.600 295.877 C 281.930 296.002,282.650 296.167,283.200 296.242 C 283.750 296.317,285.100 296.573,286.200 296.810 C 319.823 304.051,357.834 276.121,382.566 226.000 C 386.128 218.782,391.877 205.763,392.220 204.139 C 392.274 203.886,392.778 202.086,393.340 200.139 C 411.273 138.069,391.157 89.532,341.900 76.017 C 340.855 75.731,340.000 75.329,340.000 75.124 C 340.000 74.920,339.834 74.856,339.630 74.981 C 339.427 75.107,337.492 74.759,335.330 74.209 C 333.169 73.658,331.085 73.206,330.700 73.204 C 330.315 73.202,330.000 73.065,330.000 72.900 C 330.000 72.735,329.505 72.587,328.900 72.570 C 327.589 72.535,318.459 71.196,317.600 70.913 C 316.994 70.713,316.306 70.639,311.600 70.266 C 302.700 69.561,282.696 69.198,280.892 69.709 M123.718 93.332 C 123.602 93.521,122.807 93.608,121.953 93.527 C 121.099 93.446,120.400 93.519,120.400 93.689 C 120.400 93.860,120.049 94.000,119.621 94.000 C 118.044 94.000,112.101 96.128,108.689 97.915 C 98.004 103.510,90.273 113.395,85.104 128.072 L 84.727 129.143 82.663 127.843 C 69.385 119.473,49.747 127.671,45.756 143.250 C 44.419 148.469,45.130 153.364,48.064 159.126 C 49.129 161.217,50.000 162.989,50.000 163.064 C 50.000 163.139,39.785 163.209,27.300 163.221 L 4.600 163.242 7.019 164.141 C 15.928 167.454,32.474 181.022,48.600 198.239 L 54.200 204.217 54.304 187.046 L 54.409 169.874 57.690 174.584 C 70.066 192.343,87.570 205.160,99.500 205.197 C 99.995 205.199,100.400 205.335,100.400 205.500 C 100.400 205.665,102.559 205.800,105.199 205.800 C 107.839 205.800,109.999 205.665,109.999 205.500 C 110.000 205.335,110.431 205.200,110.958 205.200 C 113.619 205.200,120.080 202.502,123.785 199.844 L 125.770 198.420 126.722 199.310 C 130.436 202.780,138.338 219.101,137.438 221.445 C 137.332 221.722,137.403 222.005,137.596 222.074 C 137.960 222.205,138.944 227.539,139.414 231.929 L 139.685 234.458 133.343 234.468 C 125.618 234.480,122.030 234.640,121.085 235.014 C 120.691 235.170,119.656 235.183,118.785 235.044 C 117.733 234.876,117.200 234.941,117.200 235.237 C 117.200 235.517,116.603 235.627,115.600 235.531 C 114.720 235.448,114.000 235.538,114.000 235.733 C 114.000 235.928,113.370 236.014,112.600 235.924 C 111.830 235.834,111.200 235.867,111.200 235.996 C 111.200 236.126,109.625 236.472,107.700 236.766 C 87.909 239.783,76.567 248.775,72.339 264.800 C 71.845 266.670,71.342 268.290,71.221 268.400 C 71.099 268.510,70.967 269.140,70.928 269.800 C 70.888 270.460,70.577 272.710,70.237 274.800 C 68.968 282.607,68.726 295.062,69.811 296.817 C 69.947 297.038,70.019 297.709,69.972 298.309 C 69.924 298.909,69.998 299.670,70.135 300.000 C 70.272 300.330,70.433 301.410,70.492 302.400 C 70.552 303.390,70.695 304.290,70.812 304.400 C 70.928 304.510,71.447 306.400,71.965 308.600 C 75.648 324.251,84.380 340.585,102.330 365.400 C 110.096 376.137,114.297 379.564,121.950 381.402 C 132.734 383.993,146.554 377.662,151.138 368.032 C 151.722 366.805,152.380 365.668,152.600 365.506 C 152.820 365.344,152.884 365.209,152.742 365.206 C 152.600 365.203,152.656 364.525,152.867 363.700 C 154.635 356.766,152.874 352.594,141.928 337.787 C 124.464 314.161,119.565 303.810,118.903 289.135 L 118.693 284.471 120.940 284.190 C 122.176 284.036,123.469 284.018,123.814 284.150 C 124.159 284.283,124.346 284.236,124.229 284.046 C 124.112 283.857,125.959 283.576,128.334 283.422 C 137.390 282.835,158.660 283.256,158.192 284.013 C 158.086 284.184,159.080 284.226,160.400 284.107 C 161.872 283.973,162.800 284.043,162.800 284.287 C 162.800 284.506,163.295 284.689,163.900 284.694 C 164.974 284.704,172.003 286.765,172.400 287.187 C 172.635 287.437,173.366 287.493,181.737 287.895 L 188.075 288.200 190.771 296.200 C 202.364 330.601,221.820 362.574,249.150 392.134 C 255.610 399.121,257.450 400.815,260.400 402.488 C 275.045 410.798,295.175 397.912,295.570 379.976 C 295.719 373.161,293.487 368.534,286.443 361.057 C 267.633 341.091,252.329 318.230,242.867 295.963 C 238.866 286.548,232.504 268.002,233.001 267.199 C 233.117 267.010,233.042 266.750,232.833 266.621 C 232.513 266.423,231.681 263.291,231.394 261.200 C 231.348 260.870,231.199 260.330,231.061 260.000 C 230.089 257.665,229.734 253.959,230.214 251.139 C 231.680 242.513,231.744 236.476,230.514 222.600 C 230.397 221.280,230.253 219.570,230.193 218.800 C 230.134 218.030,229.997 217.130,229.888 216.800 C 229.428 215.399,228.408 208.311,228.618 207.971 C 228.744 207.767,228.636 207.600,228.377 207.600 C 228.093 207.600,227.981 207.210,228.095 206.614 C 228.199 206.072,228.175 205.577,228.042 205.514 C 227.909 205.451,227.287 203.330,226.659 200.800 C 220.857 177.404,208.487 154.659,190.983 135.200 C 174.875 117.294,151.246 99.154,139.100 95.370 C 137.835 94.976,136.799 94.552,136.798 94.427 C 136.797 94.302,135.942 94.150,134.898 94.090 C 133.854 94.029,132.952 93.841,132.894 93.671 C 132.835 93.501,132.158 93.436,131.388 93.525 C 130.619 93.615,129.766 93.505,129.494 93.280 C 128.907 92.794,124.024 92.838,123.718 93.332 M325.511 133.484 L 325.622 139.168 327.111 139.423 C 332.405 140.332,340.800 143.753,340.800 145.002 C 340.800 145.323,339.875 148.064,338.744 151.093 C 337.613 154.122,336.539 157.002,336.357 157.493 C 336.028 158.378,335.992 158.369,332.281 156.462 C 330.158 155.371,327.426 154.319,325.969 154.032 C 324.556 153.753,323.130 153.428,322.800 153.310 C 322.050 153.042,318.007 153.060,317.200 153.335 C 316.870 153.447,315.934 153.744,315.120 153.994 C 313.507 154.490,311.320 156.687,311.027 158.107 C 310.669 159.846,310.544 161.582,310.771 161.690 C 310.897 161.751,311.301 162.340,311.668 163.000 C 312.673 164.806,316.136 166.971,322.276 169.633 C 329.190 172.630,332.544 174.613,335.712 177.578 C 348.504 189.549,343.369 210.521,326.310 215.979 L 324.820 216.455 324.710 222.728 C 324.650 226.177,324.465 228.955,324.300 228.900 C 324.135 228.845,321.120 228.800,317.600 228.800 L 311.200 228.800 311.200 223.000 L 311.200 217.200 310.000 217.200 C 309.340 217.200,308.800 217.026,308.800 216.813 C 308.800 216.599,308.555 216.519,308.255 216.634 C 306.683 217.237,298.649 214.442,294.899 211.987 C 292.663 210.523,292.489 210.072,293.341 207.949 C 293.638 207.207,294.026 206.240,294.201 205.800 C 294.377 205.360,294.566 204.820,294.621 204.600 C 294.677 204.380,295.285 202.670,295.972 200.800 C 296.660 198.930,297.302 197.175,297.399 196.900 C 297.516 196.568,298.595 197.066,300.605 198.378 C 303.663 200.374,307.118 201.894,309.492 202.288 C 310.203 202.406,310.713 202.617,310.626 202.758 C 310.539 202.899,311.196 202.945,312.086 202.860 C 313.054 202.768,313.610 202.860,313.468 203.089 C 313.327 203.319,314.190 203.460,315.616 203.440 C 316.927 203.422,318.000 203.250,318.000 203.057 C 318.000 202.864,318.450 202.793,319.000 202.898 C 319.550 203.003,320.000 202.954,320.000 202.788 C 320.000 202.622,320.461 202.371,321.024 202.230 C 322.508 201.857,325.506 198.941,325.805 197.577 C 325.946 196.935,326.228 196.306,326.431 196.181 C 326.904 195.888,326.905 194.589,326.433 193.695 C 326.232 193.313,325.847 192.409,325.579 191.686 C 324.853 189.731,321.905 187.377,317.616 185.330 C 304.598 179.115,304.193 178.888,301.288 176.199 C 288.622 164.472,293.649 145.667,310.900 140.245 C 311.525 140.049,311.600 139.392,311.600 134.079 C 311.600 130.809,311.724 128.009,311.876 127.857 C 312.028 127.706,315.133 127.631,318.776 127.691 L 325.400 127.800 325.511 133.484 " stroke="none" fill="#040404" fill-rule="evenodd"></path><path id="path2" d="M116.600 6.000 C 117.459 6.880,118.252 7.600,118.362 7.600 C 118.472 7.600,117.859 6.880,117.000 6.000 C 116.141 5.120,115.348 4.400,115.238 4.400 C 115.128 4.400,115.741 5.120,116.600 6.000 M52.200 7.386 C 50.655 8.093,51.374 8.103,53.200 7.400 C 53.970 7.103,54.330 6.855,54.000 6.848 C 53.670 6.842,52.860 7.083,52.200 7.386 M124.080 29.400 C 124.080 30.169,124.242 30.698,124.440 30.575 C 124.638 30.453,124.800 29.924,124.800 29.400 C 124.800 28.876,124.638 28.347,124.440 28.225 C 124.242 28.102,124.080 28.631,124.080 29.400 M35.781 40.900 L 34.200 42.600 35.900 41.019 C 36.835 40.149,37.600 39.384,37.600 39.319 C 37.600 39.016,37.252 39.319,35.781 40.900 M30.000 48.767 C 30.000 48.969,29.879 49.449,29.732 49.833 C 29.564 50.272,29.620 50.435,29.884 50.272 C 30.437 49.930,30.828 48.400,30.363 48.400 C 30.163 48.400,30.000 48.565,30.000 48.767 M126.880 52.000 C 126.880 54.602,126.927 54.801,127.234 53.500 C 127.439 52.631,127.439 51.369,127.234 50.500 C 126.927 49.199,126.880 49.398,126.880 52.000 M29.212 54.000 C 29.212 54.330,29.387 54.870,29.600 55.200 C 29.945 55.733,29.988 55.733,29.988 55.200 C 29.988 54.870,29.813 54.330,29.600 54.000 C 29.255 53.467,29.212 53.467,29.212 54.000 M46.049 63.609 C 46.654 65.400,46.995 65.748,46.628 64.200 C 46.471 63.540,46.171 62.824,45.961 62.609 C 45.750 62.394,45.790 62.844,46.049 63.609 M46.800 65.746 C 46.800 66.222,47.948 68.800,48.159 68.800 C 48.269 68.800,48.079 68.125,47.738 67.300 C 47.096 65.751,46.800 65.261,46.800 65.746 M278.400 69.600 L 276.600 69.880 278.400 69.900 C 279.390 69.911,280.650 69.776,281.200 69.600 L 282.200 69.280 281.200 69.300 C 280.650 69.311,279.390 69.446,278.400 69.600 M288.500 69.498 C 290.425 69.571,293.575 69.571,295.500 69.498 C 297.425 69.425,295.850 69.365,292.000 69.365 C 288.150 69.365,286.575 69.425,288.500 69.498 M302.800 69.579 C 303.786 69.916,307.090 70.141,306.767 69.850 C 306.675 69.768,305.520 69.596,304.200 69.469 C 302.645 69.320,302.152 69.358,302.800 69.579 M271.600 70.000 L 270.200 70.295 271.600 70.319 C 272.370 70.333,273.360 70.189,273.800 70.000 L 274.600 69.656 273.800 69.681 C 273.360 69.694,272.370 69.838,271.600 70.000 M309.400 69.981 C 310.168 70.329,312.310 70.556,311.967 70.253 C 311.875 70.172,311.080 69.996,310.200 69.862 C 309.085 69.693,308.842 69.729,309.400 69.981 M266.600 70.400 C 265.511 70.677,265.493 70.707,266.400 70.725 C 266.950 70.735,267.760 70.589,268.200 70.400 C 269.186 69.976,268.266 69.976,266.600 70.400 M314.000 70.382 C 314.330 70.605,314.945 70.791,315.367 70.794 C 316.390 70.802,316.071 70.573,314.600 70.244 C 313.724 70.048,313.562 70.085,314.000 70.382 M262.600 70.800 C 261.829 71.131,261.831 71.145,262.676 71.172 C 263.158 71.187,263.664 71.020,263.800 70.800 C 264.092 70.327,263.701 70.327,262.600 70.800 M258.600 71.200 C 257.829 71.531,257.831 71.545,258.676 71.572 C 259.158 71.587,259.664 71.420,259.800 71.200 C 260.092 70.727,259.701 70.727,258.600 71.200 M255.000 71.600 L 254.200 71.944 255.000 71.966 C 255.440 71.978,256.070 71.813,256.400 71.600 C 257.195 71.086,256.196 71.086,255.000 71.600 M251.800 72.000 C 251.296 72.217,251.222 72.344,251.600 72.344 C 251.930 72.344,252.560 72.189,253.000 72.000 C 253.504 71.783,253.578 71.656,253.200 71.656 C 252.870 71.656,252.240 71.811,251.800 72.000 M366.000 86.946 C 366.000 87.056,366.540 87.530,367.200 88.000 C 367.860 88.470,368.400 88.764,368.400 88.654 C 368.400 88.544,367.860 88.070,367.200 87.600 C 366.540 87.130,366.000 86.836,366.000 86.946 M171.132 88.938 C 169.444 89.414,167.914 89.966,167.732 90.165 C 167.541 90.374,167.663 90.434,168.021 90.307 C 168.363 90.185,169.803 89.770,171.221 89.383 C 172.639 88.997,173.971 88.528,174.180 88.341 C 174.639 87.929,174.870 87.884,171.132 88.938 M70.976 90.578 C 71.404 90.920,72.034 91.186,72.376 91.168 C 72.915 91.141,72.918 91.107,72.400 90.914 C 72.070 90.792,71.440 90.526,71.000 90.324 C 70.213 89.962,70.212 89.966,70.976 90.578 M74.035 91.553 C 74.847 92.083,78.054 92.812,77.807 92.411 C 77.704 92.244,77.030 92.009,76.310 91.888 C 75.589 91.767,74.640 91.549,74.200 91.404 C 73.545 91.187,73.515 91.214,74.035 91.553 M93.000 92.400 C 91.911 92.677,91.893 92.707,92.800 92.725 C 93.350 92.735,94.160 92.589,94.600 92.400 C 95.586 91.976,94.666 91.976,93.000 92.400 M81.505 93.083 C 82.002 93.179,82.722 93.175,83.105 93.075 C 83.487 92.975,83.080 92.896,82.200 92.901 C 81.320 92.905,81.007 92.987,81.505 93.083 M88.705 93.083 C 89.202 93.179,89.922 93.175,90.305 93.075 C 90.687 92.975,90.280 92.896,89.400 92.901 C 88.520 92.905,88.207 92.987,88.705 93.083 M122.400 93.200 C 121.912 93.515,121.964 93.589,122.676 93.594 C 123.158 93.597,123.664 93.420,123.800 93.200 C 124.115 92.691,123.188 92.691,122.400 93.200 M129.400 93.200 C 129.536 93.420,130.042 93.597,130.524 93.594 C 131.236 93.589,131.288 93.515,130.800 93.200 C 130.012 92.691,129.085 92.691,129.400 93.200 M85.300 93.476 C 85.685 93.576,86.315 93.576,86.700 93.476 C 87.085 93.375,86.770 93.293,86.000 93.293 C 85.230 93.293,84.915 93.375,85.300 93.476 M377.400 96.400 C 378.706 97.720,379.865 98.800,379.975 98.800 C 380.085 98.800,379.106 97.720,377.800 96.400 C 376.494 95.080,375.335 94.000,375.225 94.000 C 375.115 94.000,376.094 95.080,377.400 96.400 M392.510 118.791 C 392.973 119.886,393.422 120.711,393.509 120.624 C 393.698 120.435,392.127 116.800,391.857 116.800 C 391.753 116.800,392.047 117.696,392.510 118.791 M183.200 127.000 C 184.395 128.210,185.463 129.200,185.573 129.200 C 185.683 129.200,184.795 128.210,183.600 127.000 C 182.405 125.790,181.337 124.800,181.227 124.800 C 181.117 124.800,182.005 125.790,183.200 127.000 M325.199 133.519 L 325.397 139.400 325.510 133.832 C 325.573 130.769,325.483 128.123,325.312 127.950 C 325.140 127.778,325.089 130.284,325.199 133.519 M311.599 134.081 C 311.489 137.536,311.540 140.222,311.711 140.050 C 311.882 139.878,311.972 137.052,311.910 133.769 L 311.797 127.800 311.599 134.081 M52.400 131.600 C 51.630 132.248,51.191 132.783,51.425 132.789 C 51.659 132.795,52.368 132.260,53.000 131.600 C 54.456 130.081,54.205 130.081,52.400 131.600 M189.200 133.325 C 189.200 133.394,189.785 133.979,190.500 134.625 L 191.800 135.800 190.625 134.500 C 189.530 133.288,189.200 133.016,189.200 133.325 M46.159 140.637 C 45.828 141.428,45.613 142.240,45.681 142.442 C 45.748 142.644,46.095 141.997,46.452 141.005 C 47.225 138.856,47.014 138.591,46.159 140.637 M44.909 148.000 C 44.909 148.990,44.987 149.395,45.082 148.900 C 45.178 148.405,45.178 147.595,45.082 147.100 C 44.987 146.605,44.909 147.010,44.909 148.000 M399.693 152.400 C 399.693 153.170,399.775 153.485,399.876 153.100 C 399.976 152.715,399.976 152.085,399.876 151.700 C 399.775 151.315,399.693 151.630,399.693 152.400 M46.218 156.100 C 46.368 156.595,46.655 157.176,46.856 157.391 C 47.057 157.606,47.019 157.201,46.772 156.491 C 46.265 155.038,45.797 154.708,46.218 156.100 M399.701 161.800 C 399.705 162.680,399.787 162.993,399.883 162.495 C 399.979 161.998,399.975 161.278,399.875 160.895 C 399.775 160.513,399.696 160.920,399.701 161.800 M325.200 171.162 C 325.200 171.494,326.841 172.092,327.084 171.849 C 327.150 171.784,326.753 171.525,326.202 171.274 C 325.651 171.023,325.200 170.972,325.200 171.162 M42.394 192.100 C 45.361 195.125,47.836 197.600,47.894 197.600 C 48.181 197.600,47.609 197.006,42.500 191.994 L 37.000 186.600 42.394 192.100 M72.033 191.700 C 72.125 191.755,72.740 192.250,73.400 192.800 L 74.600 193.800 73.630 192.700 C 73.097 192.095,72.482 191.600,72.264 191.600 C 72.045 191.600,71.942 191.645,72.033 191.700 M393.029 201.029 C 392.881 201.615,392.838 202.172,392.932 202.266 C 393.027 202.360,393.224 201.958,393.371 201.371 C 393.519 200.785,393.562 200.228,393.468 200.134 C 393.373 200.040,393.176 200.442,393.029 201.029 M51.200 201.325 C 51.200 201.394,51.785 201.979,52.500 202.625 L 53.800 203.800 52.625 202.500 C 51.530 201.288,51.200 201.016,51.200 201.325 M104.266 206.000 C 104.749 206.195,105.634 206.199,106.266 206.009 C 107.246 205.715,107.128 205.668,105.400 205.660 C 103.872 205.653,103.604 205.733,104.266 206.000 M244.909 208.800 C 244.909 209.790,244.987 210.195,245.082 209.700 C 245.178 209.205,245.178 208.395,245.082 207.900 C 244.987 207.405,244.909 207.810,244.909 208.800 M244.914 214.600 C 244.917 215.700,244.995 216.103,245.087 215.495 C 245.179 214.886,245.177 213.986,245.082 213.495 C 244.987 213.003,244.911 213.500,244.914 214.600 M324.399 222.681 C 324.289 226.246,324.340 229.022,324.511 228.850 C 324.682 228.679,324.771 225.762,324.710 222.369 L 324.598 216.200 324.399 222.681 M230.006 219.033 C 230.009 219.455,230.195 220.070,230.418 220.400 C 230.715 220.838,230.752 220.676,230.556 219.800 C 230.227 218.329,229.998 218.010,230.006 219.033 M230.428 222.633 C 230.444 223.275,230.616 224.160,230.810 224.600 C 231.047 225.134,231.086 224.802,230.927 223.600 C 230.646 221.480,230.388 220.980,230.428 222.633 M230.847 228.033 C 230.873 229.005,231.037 230.340,231.211 231.000 C 231.402 231.728,231.441 231.098,231.309 229.400 C 231.061 226.221,230.776 225.376,230.847 228.033 M125.200 234.400 L 124.200 234.720 125.200 234.754 C 125.750 234.773,126.470 234.613,126.800 234.400 C 127.564 233.906,126.742 233.906,125.200 234.400 M134.100 234.294 C 135.145 234.376,136.855 234.376,137.900 234.294 C 138.945 234.212,138.090 234.144,136.000 234.144 C 133.910 234.144,133.055 234.212,134.100 234.294 M120.200 234.800 C 119.429 235.131,119.431 235.145,120.276 235.172 C 120.758 235.187,121.264 235.020,121.400 234.800 C 121.692 234.327,121.301 234.327,120.200 234.800 M231.324 237.800 C 231.326 239.120,231.401 239.612,231.490 238.893 C 231.579 238.174,231.577 237.094,231.486 236.493 C 231.395 235.892,231.322 236.480,231.324 237.800 M231.015 245.015 C 230.861 246.254,230.817 247.350,230.919 247.452 C 231.020 247.554,231.230 246.623,231.385 245.385 C 231.539 244.146,231.583 243.050,231.481 242.948 C 231.380 242.846,231.170 243.777,231.015 245.015 M370.892 246.629 C 370.397 247.383,370.072 248.000,370.169 248.000 C 370.447 248.000,372.104 245.571,371.939 245.406 C 371.857 245.324,371.386 245.874,370.892 246.629 M230.629 249.029 C 230.481 249.615,230.438 250.172,230.532 250.266 C 230.627 250.360,230.824 249.958,230.971 249.371 C 231.119 248.785,231.162 248.228,231.068 248.134 C 230.973 248.040,230.776 248.442,230.629 249.029 M230.217 251.653 C 230.095 252.174,229.956 252.960,229.908 253.400 C 229.780 254.569,230.423 258.367,230.786 258.591 C 230.957 258.697,230.871 257.700,230.595 256.375 C 230.277 254.853,230.214 253.423,230.424 252.494 C 230.606 251.685,230.684 250.951,230.597 250.864 C 230.510 250.777,230.339 251.132,230.217 251.653 M232.068 264.200 C 232.062 264.640,232.211 265.360,232.400 265.800 C 232.838 266.819,232.838 265.768,232.400 264.400 C 232.143 263.596,232.077 263.557,232.068 264.200 M351.393 271.300 L 347.000 275.800 351.500 271.407 C 353.975 268.991,356.000 266.966,356.000 266.907 C 356.000 266.618,355.474 267.120,351.393 271.300 M233.054 268.200 C 233.474 270.103,234.048 271.246,233.756 269.600 C 233.620 268.830,233.346 267.930,233.149 267.600 C 232.914 267.208,232.881 267.416,233.054 268.200 M246.600 269.200 C 246.941 269.860,247.311 270.400,247.421 270.400 C 247.531 270.400,247.341 269.860,247.000 269.200 C 246.659 268.540,246.289 268.000,246.179 268.000 C 246.069 268.000,246.259 268.540,246.600 269.200 M69.046 282.347 C 68.889 283.527,68.846 284.579,68.950 284.683 C 69.217 284.950,69.722 281.364,69.507 280.725 C 69.411 280.436,69.203 281.166,69.046 282.347 M140.100 283.076 C 140.485 283.176,141.115 283.176,141.500 283.076 C 141.885 282.975,141.570 282.893,140.800 282.893 C 140.030 282.893,139.715 282.975,140.100 283.076 M180.800 288.400 C 181.130 288.613,182.480 288.788,183.800 288.788 C 185.120 288.788,186.470 288.613,186.800 288.400 C 187.212 288.134,186.270 288.012,183.800 288.012 C 181.330 288.012,180.388 288.134,180.800 288.400 M189.048 292.431 C 189.612 294.284,190.223 295.957,190.406 296.149 C 190.589 296.341,190.283 294.991,189.726 293.149 C 189.169 291.307,188.558 289.634,188.368 289.431 C 188.178 289.229,188.484 290.579,189.048 292.431 M68.870 290.800 C 68.857 291.350,68.995 292.520,69.177 293.400 L 69.508 295.000 69.507 293.600 C 69.505 291.835,68.909 289.212,68.870 290.800 M269.600 291.396 C 269.600 291.670,272.049 292.884,272.232 292.701 C 272.319 292.614,271.762 292.244,270.995 291.878 C 270.228 291.512,269.600 291.295,269.600 291.396 M316.800 294.065 C 316.250 294.292,313.820 295.008,311.400 295.655 C 308.980 296.302,307.736 296.737,308.637 296.621 C 310.765 296.348,317.290 294.460,317.780 293.975 C 318.244 293.517,318.088 293.532,316.800 294.065 M278.579 295.112 C 278.730 295.263,279.585 295.603,280.480 295.867 C 281.375 296.131,281.948 296.196,281.754 296.011 C 281.330 295.608,278.184 294.718,278.579 295.112 M69.228 296.676 C 69.318 297.715,69.944 298.596,69.972 297.724 C 69.987 297.242,69.820 296.736,69.600 296.600 C 69.380 296.464,69.213 296.498,69.228 296.676 M251.400 313.600 C 251.741 314.260,252.111 314.800,252.221 314.800 C 252.331 314.800,252.141 314.260,251.800 313.600 C 251.459 312.940,251.089 312.400,250.979 312.400 C 250.869 312.400,251.059 312.940,251.400 313.600 M205.800 332.000 C 206.357 333.100,206.903 334.000,207.013 334.000 C 207.123 334.000,206.757 333.100,206.200 332.000 C 205.643 330.900,205.097 330.000,204.987 330.000 C 204.877 330.000,205.243 330.900,205.800 332.000 M85.000 340.000 C 85.341 340.660,85.711 341.200,85.821 341.200 C 85.931 341.200,85.741 340.660,85.400 340.000 C 85.059 339.340,84.689 338.800,84.579 338.800 C 84.469 338.800,84.659 339.340,85.000 340.000 M151.756 352.573 C 152.220 353.755,152.671 354.654,152.758 354.570 C 152.973 354.362,151.614 350.856,151.225 350.615 C 151.053 350.509,151.292 351.390,151.756 352.573 M283.200 357.725 C 283.200 357.794,283.785 358.379,284.500 359.025 L 285.800 360.200 284.625 358.900 C 283.530 357.688,283.200 357.416,283.200 357.725 M153.301 359.800 C 153.305 360.680,153.387 360.993,153.483 360.495 C 153.579 359.998,153.575 359.278,153.475 358.895 C 153.375 358.513,153.296 358.920,153.301 359.800 M148.129 372.500 C 147.227 373.502,146.660 374.400,146.929 374.400 C 147.026 374.400,147.586 373.770,148.173 373.000 C 149.377 371.421,149.353 371.141,148.129 372.500 M109.000 374.400 C 109.859 375.280,110.652 376.000,110.762 376.000 C 110.872 376.000,110.259 375.280,109.400 374.400 C 108.541 373.520,107.748 372.800,107.638 372.800 C 107.528 372.800,108.141 373.520,109.000 374.400 M140.000 378.800 C 139.230 379.222,138.744 379.574,138.920 379.583 C 139.344 379.605,141.600 378.432,141.600 378.190 C 141.600 377.928,141.577 377.937,140.000 378.800 M295.714 379.800 C 295.717 380.900,295.795 381.303,295.887 380.695 C 295.979 380.086,295.977 379.186,295.882 378.695 C 295.787 378.203,295.711 378.700,295.714 379.800 M244.400 387.325 C 244.400 387.394,244.985 387.979,245.700 388.625 L 247.000 389.800 245.825 388.500 C 244.730 387.288,244.400 387.016,244.400 387.325 M249.800 393.200 C 250.883 394.300,251.860 395.200,251.970 395.200 C 252.080 395.200,251.283 394.300,250.200 393.200 C 249.117 392.100,248.140 391.200,248.030 391.200 C 247.920 391.200,248.717 392.100,249.800 393.200 " stroke="none" fill="#565656" fill-rule="evenodd"></path><path id="path3" d="M102.100 0.276 C 102.485 0.376,103.115 0.376,103.500 0.276 C 103.885 0.175,103.570 0.093,102.800 0.093 C 102.030 0.093,101.715 0.175,102.100 0.276 M38.267 25.067 C 37.853 25.480,37.953 27.523,38.400 27.800 C 38.642 27.949,38.800 27.404,38.800 26.424 C 38.800 24.766,38.734 24.599,38.267 25.067 M122.800 33.353 C 122.800 33.782,123.990 36.000,124.221 36.000 C 124.331 36.000,124.123 35.415,123.759 34.700 C 123.017 33.240,122.800 32.936,122.800 33.353 M51.200 74.983 C 51.200 75.143,51.560 75.731,52.000 76.291 C 52.440 76.850,52.800 77.177,52.800 77.017 C 52.800 76.857,52.440 76.269,52.000 75.709 C 51.560 75.150,51.200 74.823,51.200 74.983 M114.575 81.652 C 113.595 82.695,113.548 82.827,114.291 82.443 C 114.781 82.189,115.372 81.626,115.605 81.191 C 116.197 80.085,115.936 80.202,114.575 81.652 M64.601 87.602 C 64.869 88.036,67.200 89.334,67.200 89.050 C 67.200 88.956,66.559 88.501,65.776 88.039 C 64.993 87.577,64.464 87.380,64.601 87.602 M104.300 88.826 C 103.035 89.479,102.000 90.103,102.000 90.212 C 102.000 90.322,103.080 89.866,104.400 89.200 C 105.720 88.534,106.800 87.901,106.800 87.794 C 106.800 87.528,106.874 87.497,104.300 88.826 M114.800 94.634 C 113.490 95.170,113.477 95.192,114.600 94.975 C 115.260 94.848,115.971 94.576,116.180 94.372 C 116.659 93.903,116.521 93.929,114.800 94.634 M98.022 105.043 C 96.963 105.934,95.708 107.600,96.096 107.600 C 96.164 107.600,96.982 106.790,97.914 105.800 C 99.821 103.773,99.860 103.496,98.022 105.043 M196.094 122.117 C 196.475 122.426,196.700 122.766,196.594 122.873 C 196.487 122.979,196.662 123.067,196.982 123.067 C 197.743 123.067,197.386 122.516,196.278 121.980 C 195.486 121.597,195.468 121.611,196.094 122.117 M204.400 129.800 C 205.595 131.010,206.663 132.000,206.773 132.000 C 206.883 132.000,205.995 131.010,204.800 129.800 C 203.605 128.590,202.537 127.600,202.427 127.600 C 202.317 127.600,203.205 128.590,204.400 129.800 M51.329 132.100 C 50.884 132.595,50.376 133.270,50.201 133.600 C 49.863 134.237,49.955 134.150,51.576 132.300 C 52.106 131.695,52.449 131.200,52.339 131.200 C 52.229 131.200,51.775 131.605,51.329 132.100 M300.757 146.100 C 299.299 147.323,298.942 148.209,300.288 147.266 C 300.996 146.769,301.682 146.191,301.812 145.981 C 302.150 145.434,301.459 145.511,300.757 146.100 M327.397 153.995 C 327.535 154.218,327.862 154.406,328.124 154.413 C 328.386 154.419,329.455 154.844,330.500 155.356 C 331.545 155.868,332.400 156.152,332.400 155.986 C 332.400 155.821,332.175 155.595,331.900 155.485 C 328.008 153.924,327.185 153.652,327.397 153.995 M40.800 190.925 C 40.800 190.994,41.385 191.579,42.100 192.225 L 43.400 193.400 42.225 192.100 C 41.130 190.888,40.800 190.616,40.800 190.925 M224.463 192.200 C 224.462 192.420,224.703 193.230,225.000 194.000 C 225.297 194.770,225.545 195.130,225.552 194.800 C 225.558 194.470,225.317 193.660,225.014 193.000 C 224.712 192.340,224.464 191.980,224.463 192.200 M47.583 197.700 C 48.564 198.745,49.419 199.600,49.483 199.600 C 49.784 199.600,49.466 199.241,47.700 197.583 L 45.800 195.800 47.583 197.700 M134.711 233.893 C 135.651 233.978,137.091 233.977,137.911 233.891 C 138.730 233.805,137.960 233.736,136.200 233.737 C 134.440 233.739,133.770 233.809,134.711 233.893 M240.128 244.400 C 240.128 245.830,240.201 246.415,240.289 245.700 C 240.378 244.985,240.378 243.815,240.289 243.100 C 240.201 242.385,240.128 242.970,240.128 244.400 M80.975 248.100 L 79.800 249.400 81.100 248.225 C 82.312 247.130,82.584 246.800,82.275 246.800 C 82.206 246.800,81.621 247.385,80.975 248.100 M74.800 256.800 C 74.351 257.680,74.074 258.400,74.184 258.400 C 74.294 258.400,74.751 257.680,75.200 256.800 C 75.649 255.920,75.926 255.200,75.816 255.200 C 75.706 255.200,75.249 255.920,74.800 256.800 M350.987 272.100 L 348.600 274.600 351.100 272.213 C 352.475 270.899,353.600 269.774,353.600 269.713 C 353.600 269.417,353.205 269.778,350.987 272.100 M255.200 281.000 C 255.946 281.770,256.647 282.400,256.757 282.400 C 256.867 282.400,256.346 281.770,255.600 281.000 C 254.854 280.230,254.153 279.600,254.043 279.600 C 253.933 279.600,254.454 280.230,255.200 281.000 M179.000 288.400 C 179.440 288.589,180.070 288.744,180.400 288.744 C 180.778 288.744,180.704 288.617,180.200 288.400 C 179.760 288.211,179.130 288.056,178.800 288.056 C 178.422 288.056,178.496 288.183,179.000 288.400 M325.100 290.827 C 324.275 291.263,323.600 291.708,323.600 291.818 C 323.600 291.927,324.320 291.649,325.200 291.200 C 326.080 290.751,326.800 290.297,326.800 290.192 C 326.800 289.930,326.797 289.931,325.100 290.827 M244.800 300.000 C 245.249 300.880,245.706 301.600,245.816 301.600 C 245.926 301.600,245.649 300.880,245.200 300.000 C 244.751 299.120,244.294 298.400,244.184 298.400 C 244.074 298.400,244.351 299.120,244.800 300.000 M72.448 312.400 C 72.442 312.730,72.683 313.540,72.986 314.200 C 73.693 315.745,73.703 315.026,73.000 313.200 C 72.703 312.430,72.455 312.070,72.448 312.400 M284.400 358.338 C 284.400 358.524,284.788 359.019,285.262 359.438 L 286.124 360.200 285.416 359.100 C 284.686 357.966,284.400 357.751,284.400 358.338 M288.000 362.600 C 288.746 363.370,289.447 364.000,289.557 364.000 C 289.667 364.000,289.146 363.370,288.400 362.600 C 287.654 361.830,286.953 361.200,286.843 361.200 C 286.733 361.200,287.254 361.830,288.000 362.600 " stroke="none" fill="#7c7c7c" fill-rule="evenodd"></path><path id="path4" d="M315.100 127.898 C 316.915 127.972,319.885 127.972,321.700 127.898 C 323.515 127.823,322.030 127.763,318.400 127.763 C 314.770 127.763,313.285 127.823,315.100 127.898 M185.600 129.325 C 185.600 129.394,186.185 129.979,186.900 130.625 L 188.200 131.800 187.025 130.500 C 185.930 129.288,185.600 129.016,185.600 129.325 M206.800 132.125 C 206.800 132.194,207.385 132.779,208.100 133.425 L 209.400 134.600 208.225 133.300 C 207.130 132.088,206.800 131.816,206.800 132.125 M233.628 168.200 C 233.628 168.420,233.886 169.050,234.200 169.600 C 234.514 170.150,234.772 170.420,234.772 170.200 C 234.772 169.980,234.514 169.350,234.200 168.800 C 233.886 168.250,233.628 167.980,233.628 168.200 M69.400 189.200 C 70.259 190.080,71.052 190.800,71.162 190.800 C 71.272 190.800,70.659 190.080,69.800 189.200 C 68.941 188.320,68.148 187.600,68.038 187.600 C 67.928 187.600,68.541 188.320,69.400 189.200 " stroke="none" fill="#747474" fill-rule="evenodd"></path></g></svg>